<?xml version="1.0" encoding="UTF-8" standalone="no"?>
<!-- Generator: Adobe Illustrator 14.0.0, SVG Export Plug-In . SVG Version: 6.00 Build 43363)  -->

<svg
   xmlns:dc="http://purl.org/dc/elements/1.1/"
   xmlns:cc="http://creativecommons.org/ns#"
   xmlns:rdf="http://www.w3.org/1999/02/22-rdf-syntax-ns#"
   xmlns:svg="http://www.w3.org/2000/svg"
   xmlns="http://www.w3.org/2000/svg"
   xmlns:sodipodi="http://sodipodi.sourceforge.net/DTD/sodipodi-0.dtd"
   xmlns:inkscape="http://www.inkscape.org/namespaces/inkscape"
   version="1.1"
   id="svg2"
   inkscape:version="0.48.4 r9939"
   sodipodi:docname="logo.svg"
   inkscape:export-ydpi="90"
   inkscape:export-xdpi="90"
   inkscape:export-filename="/home/sam/Documentos/mono/SSEG/logo.png"
   x="0px"
   y="0px"
   width="277.62741"
   height="248.03149"
   viewBox="0 0 277.62741 248.03151"
   enable-background="new 0 0 1417.324 1062.992"
   xml:space="preserve"><metadata
     id="metadata15"><rdf:RDF><cc:Work
         rdf:about=""><dc:format>image/svg+xml</dc:format><dc:type
           rdf:resource="http://purl.org/dc/dcmitype/StillImage" /><dc:title></dc:title></cc:Work></rdf:RDF></metadata><defs
     id="defs13" /><sodipodi:namedview
     id="base"
     inkscape:window-y="25"
     inkscape:window-x="0"
     inkscape:window-height="551"
     inkscape:window-width="1024"
     fit-margin-bottom="0"
     fit-margin-right="0"
     inkscape:guide-bbox="true"
     inkscape:current-layer="svg2"
     inkscape:document-units="px"
     inkscape:pageshadow="2"
     inkscape:pageopacity="0.0"
     inkscape:window-maximized="1"
     inkscape:zoom="0.49497475"
     fit-margin-left="0"
     fit-margin-top="0"
     borderopacity="1.0"
     showguides="true"
     bordercolor="#666666"
     showgrid="false"
     pagecolor="#ffffff"
     inkscape:cy="102.62514"
     inkscape:cx="266.75893" /><path
     id="path3840"
     inkscape:connector-curvature="0"
     d="m 183.29957,138.94315 49.71626,-0.43783 44.13097,-44.17536 V 45.0959 l -93.84723,93.84725 z"
     style="fill:#e6e6e6" /><path
     id="path3818"
     inkscape:connector-curvature="0"
     d="m 183.77825,0 h 49.12359 l 44.67018,44.6707 0.0554,49.17906 L 183.77817,0 z"
     style="fill:#f2f2f2" /><path
     id="path3838"
     sodipodi:nodetypes="cccccc"
     inkscape:connector-curvature="0"
     d="m 187.3777,45.76979 -25.82155,0.59117 1.2484,-25.16481 L 184.00019,0 h 48.90165 L 187.3777,45.76979 z"
     style="fill:#ffffff" /><path
     id="path3796"
     inkscape:connector-curvature="0"
     d="M 45.762714,0 H 94.59828 L 0.46606387,94.26388 0.53410387,45.22906 45.762658,0 l 0,0 z"
     style="fill:#e6e6e6" /><path
     id="path3836"
     sodipodi:nodetypes="cccccc"
     inkscape:connector-curvature="0"
     d="m 89.500257,94.50045 26.391013,-2.47513 -1.81788,27.04877 -19.430716,19.43073 H 45.495881 L 89.500257,94.50045 z"
     style="fill:#e6e6e6" /><path
     id="path3826"
     inkscape:connector-curvature="0"
     d="M 0.57148387,45.19074 94.642674,138.50482 H 45.495881 L 0.57198787,94.00462 V 45.19074 z"
     style="fill:#f2f2f2" /><path
     id="path3788"
     inkscape:connector-curvature="0"
     d="M 45.495384,0.17554 94.642163,0.08777 233.05921,138.50532 H 182.86123 L 45.495384,0.17554 z"
     style="fill:#ffffff" /><path
     id="path4091"
     inkscape:connector-curvature="0"
     d="m 245.22699,154.15199 c -2.30161,0 -4.68643,0.20328 -7.16509,0.64564 -2.39037,0.3541 -5.1868,1.28624 -8.37414,2.79138 -3.09807,1.41637 -5.83749,3.28066 -8.22736,5.58226 -2.30212,2.21283 -4.29653,5.43649 -5.97873,9.6856 -1.59291,4.24912 -2.39542,9.17011 -2.39542,14.74732 v 26.95394 c 0,5.39967 0.80251,10.22733 2.39542,14.47645 1.59393,4.16084 3.55152,7.384 5.85363,9.6856 2.38937,2.3016 5.57672,4.42616 9.56102,6.37418 4.07156,1.9475 8.93555,2.93715 14.60054,2.93715 5.40016,0 10.61823,-1.12029 15.66432,-3.33261 3.09856,-1.3281 5.80116,-3.09856 8.10277,-5.31189 2.30161,-2.21284 4.23853,-5.34268 5.83245,-9.41474 1.68219,-4.16034 2.52051,-8.95169 2.52051,-14.35187 v -8.62332 c 0,-3.80675 -1.77097,-5.70685 -5.3119,-5.70685 h -23.09976 c -0.79646,0 -1.44765,0.26028 -1.97879,0.79091 -0.44287,0.53165 -0.66683,1.14551 -0.66683,1.8542 v 1.20856 c 0,1.77046 0.87515,2.6451 2.64562,2.6451 h 21.91289 v 7.70682 c -7e-4,4.33789 -0.67237,8.13909 -2.00047,11.41471 -1.23882,3.2751 -2.78533,5.84807 -4.64457,7.7068 -1.85924,1.77047 -4.02062,3.22367 -6.49876,4.37422 -2.47865,1.06177 -4.69753,1.77046 -6.64504,2.12456 -1.94751,0.26532 -3.88444,0.39595 -5.83244,0.39595 -1.94702,0 -3.90512,-0.16696 -5.85314,-0.52104 -1.947,-0.3536 -4.2022,-1.11979 -6.76912,-2.27034 -2.47916,-1.15054 -4.64054,-2.64006 -6.49928,-4.4993 -1.85823,-1.947 -3.46275,-4.65012 -4.79034,-8.10226 -1.3276,-3.45217 -1.97878,-7.44151 -1.97878,-11.95595 v -26.01674 c 0,-4.51444 0.61436,-8.50327 1.85369,-11.95594 1.32759,-3.45266 2.91092,-6.11895 4.76966,-7.97768 1.85924,-1.94751 4.04079,-3.49402 6.51945,-4.64457 2.47915,-1.15055 4.69753,-1.89556 6.64504,-2.24964 2.03629,-0.3541 4.55125,-0.54174 7.56155,-0.54174 3.09806,0 6.41554,0.76569 9.95596,2.26983 2.38988,0.97401 4.51444,2.20324 6.37368,3.70788 1.85924,1.50515 3.50007,3.6872 4.91593,6.51995 1.41688,2.83275 2.34852,6.09272 2.79139,9.8107 0.17654,1.59342 1.05168,2.39592 2.64561,2.39592 h 1.20806 c 1.77045,0 2.6456,-0.96896 2.6456,-2.91647 -0.44337,-4.60321 -1.54198,-8.62837 -3.31193,-12.08103 -1.77097,-3.54142 -3.82239,-6.30103 -6.12399,-8.24904 -2.30211,-2.03579 -4.9109,-3.65544 -7.83241,-4.89477 -2.83275,-1.32759 -5.44154,-2.1871 -7.83141,-2.5417 -2.38988,-0.44286 -4.77471,-0.64614 -7.16509,-0.64614 l 0,0 z m -214.212093,0.52054 c -8.055355,0 -14.429541,2.12456 -19.121522,6.37368 -4.6914771,4.24912 -7.0404952,9.24324 -7.0404952,14.9975 0,5.66549 1.416366,10.36252 4.2491121,14.08099 2.9215201,3.62921 7.5610501,6.87405 13.9352221,9.70629 8.321187,3.36439 14.434581,5.97317 18.330109,7.83191 3.009797,1.50515 5.785542,3.31193 8.352967,5.43648 3.18633,2.6557 4.790842,6.45741 4.790842,11.41471 0,4.86852 -1.994916,8.95118 -5.978217,12.2268 -3.895024,3.18683 -8.946644,4.77017 -15.143268,4.77017 -6.107857,0 -11.716852,-1.35937 -16.851205,-4.10386 -2.655688,-1.41636 -4.874065,-3.54142 -6.6445261,-6.37417 -1.770468,-2.92101 -2.738925,-6.33231 -2.9159761,-10.22683 -0.177044,-1.68219 -1.072869,-2.52051 -2.666286,-2.52051 h -1.186871 c -1.770461,0 -2.66628593,0.93214 -2.66628593,2.79138 0.177037,4.78026 1.29632293,9.00869 3.33260893,12.72616 2.124052,3.62971 4.8271651,6.46295 8.1022692,8.49874 6.196631,3.80675 12.774083,5.72853 19.767167,5.72853 9.383451,0 16.616635,-2.21837 21.662718,-6.64504 5.134346,-4.51443 7.686133,-9.92015 7.686133,-16.20555 0,-6.2849 -1.416373,-11.11257 -4.249119,-14.47645 -3.717966,-4.42616 -11.15443,-8.84174 -22.308349,-13.2689 -9.383969,-3.6292 -15.794464,-7.17014 -19.246626,-10.62279 -2.479148,-2.56693 -3.729075,-5.97822 -3.729075,-10.22733 0,-4.33789 1.770979,-7.97265 5.311908,-10.89416 3.540929,-2.92102 8.498728,-4.37371 14.87241,-4.37371 5.931303,0 11.03942,1.54651 15.289043,4.64507 4.248615,3.00979 6.503812,7.87378 6.769637,14.60155 0.08826,0.70819 0.38486,1.32306 0.915999,1.85369 0.531643,0.44287 1.109192,0.66632 1.729098,0.66632 h 1.333143 c 0.70819,0 1.322552,-0.26027 1.853691,-0.79141 0.531139,-0.61992 0.791413,-1.29178 0.791413,-1.99997 -0.354088,-8.49823 -3.317475,-14.87241 -8.894186,-19.12152 -5.487426,-4.33639 -12.288836,-6.49777 -20.433483,-6.49777 l 0,0 z m 73.904033,0 c -8.055856,0 -14.429538,2.12456 -19.121519,6.37368 -4.691988,4.24912 -7.040495,9.24324 -7.040495,14.9975 0,5.66549 1.416366,10.36252 4.249112,14.08099 2.92152,3.62921 7.582232,6.87405 13.955907,9.70629 8.321175,3.36439 14.414395,5.97317 18.308915,7.83191 3.0098,1.50515 5.80622,3.31193 8.37365,5.43648 3.18633,2.6557 4.76965,6.45741 4.77016,11.41471 -5.1e-4,4.86852 -1.97425,8.95118 -5.95753,12.2268 -3.89503,3.18683 -8.94665,4.77017 -15.14277,4.77017 -6.10836,0 -11.737529,-1.35937 -16.872379,-4.10386 -2.655702,-1.41636 -4.874079,-3.54142 -6.64454,-6.37417 -1.770468,-2.92101 -2.738918,-6.33231 -2.915969,-10.22683 -0.177051,-1.68219 -1.051687,-2.52051 -2.645608,-2.52051 h -1.208053 c -1.770468,0 -2.645104,0.93214 -2.645104,2.79138 0.177044,4.78026 1.276149,9.00869 3.311931,12.72616 2.124556,3.62971 4.827165,6.46295 8.102773,8.49874 6.196631,3.80675 12.794761,5.72853 19.787839,5.72853 9.38396,0 16.59597,-2.21837 21.64203,-6.64504 5.13436,-4.51443 7.70682,-9.92015 7.70682,-16.20555 0,-6.2849 -1.41636,-11.11257 -4.24911,-14.47645 -3.71798,-4.42616 -11.15444,-8.84174 -22.30836,-13.2689 -9.38396,-3.6292 -15.81514,-7.17014 -19.267288,-10.62279 -2.478658,-2.56693 -3.707893,-5.97822 -3.707893,-10.22733 0,-4.33789 1.770468,-7.97265 5.311397,-10.89416 3.541433,-2.92102 8.498735,-4.37371 14.872404,-4.37371 5.9313,0 11.01925,1.54651 15.26836,4.64507 4.24912,3.00979 6.50381,7.87378 6.76964,14.60155 0.0883,0.70819 0.40655,1.32306 0.93718,1.85369 0.53114,0.44287 1.10919,0.66632 1.7291,0.66632 h 1.31247 c 0.70819,0 1.34323,-0.26027 1.87437,-0.79141 0.53114,-0.61992 0.79141,-1.29178 0.79141,-1.99997 -0.35459,-8.49823 -3.31747,-14.87241 -8.89419,-19.12152 -5.48843,-4.33639 -12.31053,-6.49777 -20.45466,-6.49777 z m 50.01184,0.27087 c -1.947,0 -3.30688,0.44792 -4.10334,1.33315 -0.79646,0.79696 -1.20805,2.06201 -1.20805,3.83298 v 82.46431 c 0,1.68219 0.31727,3.00474 0.93668,3.97875 0.70818,0.88523 2.12507,1.33315 4.24962,1.33315 h 46.47092 c 0.70819,0 1.32255,-0.26028 1.85419,-0.79142 0.53064,-0.53114 0.79141,-1.1455 0.79141,-1.85369 v -1.20804 c 0,-0.79697 -0.26077,-1.41134 -0.79141,-1.85421 -0.53164,-0.53164 -1.1455,-0.79141 -1.85419,-0.79141 h -45.01319 v -79.9448 h 45.01319 c 0.70819,0 1.32255,-0.22396 1.85419,-0.66632 0.53064,-0.53114 0.79141,-1.18183 0.79141,-1.97879 v -1.20805 c 0,-0.70818 -0.26077,-1.32255 -0.79141,-1.85369 -0.53164,-0.53114 -1.1455,-0.79141 -1.85419,-0.79141 h -46.34583 l 0,-5.1e-4 z m 9.29016,41.43039 c -0.79747,0 -1.44867,0.26078 -1.9788,0.7909 -0.44286,0.53165 -0.66632,1.14602 -0.66632,1.85421 v 1.20855 c 0,1.77046 0.87465,2.6451 2.64562,2.6451 h 28.43184 c 1.77097,0 2.64561,-0.87464 2.64561,-2.6451 v -1.20855 c 0,-0.70769 -0.26028,-1.32256 -0.79142,-1.85421 -0.44236,-0.53062 -1.05673,-0.7909 -1.85419,-0.7909 h -28.43234 z"
     style="fill:#f2f2f2" /><path
     id="path3969"
     inkscape:connector-curvature="0"
     d="m 53.490728,140.46696 v 4.33284 c -0.55384,-0.90692 -1.366442,-1.35432 -2.437295,-1.35432 -0.89432,0 -1.608047,0.29961 -2.124556,0.9165 -0.516012,0.61739 -0.770231,1.40881 -0.770231,2.35406 0,1.03252 0.270865,1.87841 0.812091,2.52052 0.54173,0.63 1.267574,0.93718 2.187108,0.93718 1.007293,0 1.824438,-0.44287 2.416099,-1.31195 0,0.42823 -0.0042,0.81763 0.02121,1.14549 h 0.687001 c -0.03731,-0.32786 -0.06258,-0.86506 -0.06258,-1.58332 v -7.957 h -0.728854 l 0,0 z m 134.642062,0 v 4.33284 c -0.55384,-0.90692 -1.36594,-1.35432 -2.43679,-1.35432 -0.89431,0 -1.58686,0.29961 -2.10388,0.9165 -0.5165,0.61739 -0.79141,1.40881 -0.79141,2.35406 0,1.03252 0.27037,1.87841 0.8121,2.52052 0.54173,0.63 1.28876,0.93718 2.20778,0.93718 1.0078,0 1.80325,-0.44287 2.39592,-1.31195 0,0.42823 0.0162,0.81763 0.0414,1.14549 h 0.66633 c -0.0373,-0.32786 -0.0414,-0.86506 -0.0414,-1.58332 v -7.957 h -0.75005 l 0,0 z m 53.65768,0 v 4.33284 c -0.55384,-0.90692 -1.36642,-1.35432 -2.43728,-1.35432 -0.89381,0 -1.60805,0.29961 -2.12456,0.9165 -0.51601,0.61739 -0.77023,1.40881 -0.77023,2.35406 0,1.03252 0.27086,1.87841 0.8126,2.52052 0.54122,0.63 1.26758,0.93718 2.1866,0.93718 1.00729,0 1.82444,-0.44287 2.4161,-1.31195 0,0.42823 -0.004,0.81763 0.0212,1.14549 h 0.68701 c -0.0373,-0.32786 -0.0626,-0.86506 -0.0626,-1.58332 v -7.957 h -0.72887 l 0,0 z m 21.43322,0 v 4.33284 c -0.55384,-0.90692 -1.36593,-1.35432 -2.43629,-1.35432 -0.8943,0 -1.58786,0.29961 -2.10387,0.9165 -0.51651,0.61739 -0.77073,1.40881 -0.77073,2.35406 0,1.03252 0.27036,1.87841 0.81159,2.52052 0.54173,0.63 1.26858,0.93718 2.18761,0.93718 1.0073,0 1.80325,-0.44287 2.39542,-1.31195 0,0.42823 0.0162,0.81763 0.0414,1.14549 h 0.66632 c -0.0373,-0.32786 -0.0414,-0.86506 -0.0414,-1.58332 v -7.957 h -0.75005 l 0,0 z M 3.0829158,140.84173 c -0.831257,0 -1.503635,0.22547 -2.020648,0.66631 -0.51600493,0.44086 -0.77072793,0.97805 -0.77072793,1.64538 0,1.14601 0.84538993,1.99947 2.52051093,2.5412 0.717773,0.22648 1.218644,0.49734 1.520785,0.81209 0.314748,0.30265 0.479192,0.70415 0.479192,1.20805 0,0.55435 -0.20076,0.99318 -0.604282,1.33315 -0.403018,0.32736 -0.960897,0.49986 -1.66656,0.49986 -0.881699,0 -1.63225995,-0.24211 -2.24964593,-0.70768 L -1.0125315e-5,149.48573 C 0.66731387,149.93919 1.4753798,150.17324 2.4579628,150.17324 c 0.994679,0 1.778525,-0.27087 2.332876,-0.8126 0.491295,-0.45296 0.728868,-1.02747 0.728868,-1.70792 0,-0.70516 -0.204288,-1.25042 -0.645638,-1.66605 -0.378308,-0.35258 -1.005788,-0.6976 -1.874376,-0.99973 -1.335159,-0.45347 -1.999459,-1.08498 -1.999459,-1.91624 0,-0.40302 0.135177,-0.76014 0.437311,-1.06228 0.377797,-0.3657 0.919527,-0.54173 1.624686,-0.54173 0.630007,0 1.228738,0.14779 1.770468,0.43732 0.100884,-0.17655 0.198737,-0.38941 0.312235,-0.60377 -0.528619,-0.31526 -1.21814,-0.45851 -2.062018,-0.45851 l 0,0 z m 66.8635452,0 c -0.831264,0 -1.504139,0.22547 -2.020648,0.66631 -0.516005,0.44086 -0.770238,0.97805 -0.770238,1.64538 0,1.14601 0.844879,1.99947 2.520525,2.5412 0.717762,0.22648 1.218136,0.49734 1.52027,0.81209 0.315252,0.30265 0.479185,0.70415 0.479185,1.20805 0,0.55435 -0.200753,0.99318 -0.603771,1.33315 -0.403018,0.32736 -0.961401,0.49986 -1.666556,0.49986 -0.881699,0 -1.631749,-0.24211 -2.249149,-0.70768 l -0.312725,0.64564 c 0.667835,0.45346 1.496579,0.68751 2.479148,0.68751 0.995193,0 1.778542,-0.27087 2.332879,-0.8126 0.491288,-0.45296 0.729372,-1.02747 0.729372,-1.70792 0,-0.70516 -0.205296,-1.25042 -0.646149,-1.66605 -0.37779,-0.35258 -1.005781,-0.6976 -1.874365,-0.99973 -1.335166,-0.45347 -1.99997,-1.08498 -1.99997,-1.91624 0,-0.40302 0.135184,-0.76014 0.437829,-1.06228 0.377797,-0.3657 0.91903,-0.54173 1.624693,-0.54173 0.629492,0 1.229231,0.14779 1.770464,0.43732 0.100877,-0.17655 0.199234,-0.38941 0.312214,-0.60377 -0.530628,-0.31526 -1.219645,-0.45851 -2.063008,-0.45851 l 0,0 z m 151.868529,0.0626 c -1.28522,0 -2.29857,0.45195 -3.04157,1.33315 -0.71776,0.83126 -1.08296,1.91472 -1.08296,3.24938 0,1.39821 0.34906,2.50992 1.0411,3.3538 0.69305,0.83075 1.62468,1.2494 2.7702,1.2494 0.2522,0 0.73643,-0.0615 1.47942,-0.18763 l 1.12482,-0.20833 c 0.16292,0 0.29457,0.0494 0.39545,0.12509 v -4.31165 h -2.99969 v 0.60377 h 2.27033 v 2.91597 c -0.65472,0.31525 -1.3725,0.45851 -2.16593,0.45851 -1.00779,0 -1.77904,-0.35711 -2.33286,-1.06228 -0.54174,-0.71777 -0.8121,-1.68169 -0.8121,-2.91597 0,-1.15862 0.30718,-2.11044 0.93668,-2.85393 0.64312,-0.74299 1.43,-1.12432 2.37474,-1.12432 0.73038,0 1.47236,0.14779 2.22847,0.43732 l 0.2295,-0.60377 c -0.69204,-0.30265 -1.49606,-0.45851 -2.4156,-0.45851 l 0,0 z m -73.96658,0.10391 v 8.9986 h 4.89525 v -0.62495 h -4.16639 v -3.81231 h 3.70789 v -0.62496 h -3.70789 v -3.31192 h 4.16639 v -0.62497 h -4.89525 l 0,5.1e-4 z m -140.4119701,0.0212 c -0.176533,0 -0.303135,0.0529 -0.416633,0.16695 -0.1008841,0.11299 -0.1664531,0.26078 -0.1664531,0.43732 0,0.17655 0.06559,0.32434 0.1664531,0.43782 0.113498,0.10038 0.2401,0.14578 0.416633,0.14578 0.176547,0 0.323834,-0.0454 0.437325,-0.14578 0.113491,-0.11348 0.166453,-0.26127 0.166453,-0.43782 0,-0.17654 -0.05292,-0.32433 -0.166453,-0.43732 -0.113491,-0.11399 -0.261282,-0.16695 -0.437325,-0.16695 z m 66.8625261,0 c -0.176036,0 -0.303142,0.0529 -0.416129,0.16695 -0.100884,0.11299 -0.16695,0.26078 -0.16695,0.43732 0,0.17655 0.06559,0.32434 0.16695,0.43782 0.112987,0.10038 0.240604,0.14578 0.416129,0.14578 0.176554,0 0.324345,-0.0454 0.437829,-0.14578 0.113491,-0.11348 0.166964,-0.26127 0.166964,-0.43782 0,-0.17654 -0.05348,-0.32433 -0.166964,-0.43732 -0.11298,-0.11399 -0.261275,-0.16695 -0.437829,-0.16695 z m 15.955877,0 c -0.17654,0 -0.323834,0.0529 -0.437318,0.16695 -0.100884,0.11299 -0.145775,0.26078 -0.145775,0.43732 0,0.17655 0.04487,0.32434 0.145775,0.43782 0.113484,0.10038 0.260778,0.14578 0.437318,0.14578 0.176547,0 0.324338,-0.0454 0.437822,-0.14578 0.112994,-0.11348 0.166453,-0.26127 0.166453,-0.43782 0,-0.17654 -0.05348,-0.32433 -0.166453,-0.43732 -0.113988,-0.11399 -0.261779,-0.16695 -0.437822,-0.16695 z m 14.059807,0 c -0.17654,0 -0.32383,0.0529 -0.43733,0.16695 -0.10087,0.11299 -0.16644,0.26078 -0.16644,0.43732 0,0.17655 0.0656,0.32434 0.16644,0.43782 0.1135,0.10038 0.26129,0.14578 0.43733,0.14578 0.17604,0 0.30315,-0.0454 0.41664,-0.14578 0.11349,-0.11348 0.18764,-0.26127 0.18764,-0.43782 0,-0.17654 -0.0742,-0.32433 -0.18764,-0.43732 -0.11349,-0.11399 -0.24009,-0.16695 -0.41664,-0.16695 z m -88.046555,0.29154 -0.750057,0.35409 v 1.89556 H 14.24744 v 0.5831 h 1.270598 v 3.95756 c 0,0.56645 0.144256,1.03857 0.395955,1.41637 0.290038,0.42824 0.695583,0.64565 1.24992,0.64565 0.415632,0 0.74753,-0.0535 0.999733,-0.16646 l -0.06258,-0.5836 c -0.189161,0.0757 -0.484232,0.10441 -0.87465,0.10441 -0.642607,0 -0.957852,-0.48019 -0.957852,-1.43755 v -3.93689 h 2.062004 v -0.5831 h -2.062004 v -2.24914 l -5.11e-4,0 z m 105.980705,0 -0.74955,0.35409 v 1.89556 h -1.2711 v 0.5831 h 1.2711 v 3.95756 c 0,0.56645 0.12258,1.03857 0.37478,1.41637 0.28953,0.42824 0.71625,0.64565 1.2706,0.64565 0.41563,0 0.74803,-0.0535 0.99973,-0.16646 l -0.0626,-0.5836 c -0.18916,0.0757 -0.48474,0.10441 -0.87515,0.10441 -0.6421,0 -0.95786,-0.48019 -0.95786,-1.43755 v -3.93689 h 2.04133 v -0.5831 h -2.04133 v -2.24914 z m -110.521381,2.12403 c -0.667828,0 -1.184841,0.16848 -1.562134,0.52105 -0.3651971,0.35259 -0.5624151,0.77931 -0.5624151,1.2706 0,0.80605 0.5825891,1.39721 1.7290981,1.74979 0.995197,0.30263 1.478918,0.75761 1.478918,1.375 0,0.79394 -0.525084,1.18737 -1.58333,1.18737 -0.453453,0 -0.978544,-0.1725 -1.5828191,-0.50037 l -0.270865,0.60429 c 0.579054,0.33997 1.1823211,0.52054 1.8118171,0.52054 0.730387,0 1.284227,-0.18915 1.687245,-0.54173 0.415632,-0.35259 0.624953,-0.79142 0.624953,-1.33315 0,-0.86909 -0.561904,-1.50514 -1.707916,-1.89555 -0.982583,-0.34048 -1.478918,-0.74601 -1.478918,-1.24992 0,-0.31526 0.106428,-0.57754 0.333417,-0.79142 0.226982,-0.21386 0.555345,-0.3334 0.958363,-0.3334 0.566454,0 1.038079,0.15586 1.41638,0.4585 l 0.29155,-0.60427 c -0.390922,-0.28903 -0.916006,-0.43682 -1.583344,-0.43733 l 0,0 z m 10.622794,0 c -0.932141,0 -1.707412,0.31576 -2.312191,0.95837 -0.604282,0.64262 -0.895328,1.50415 -0.895328,2.56239 0,0.93163 0.291046,1.68622 0.895328,2.291 0.604779,0.60429 1.412838,0.91651 2.395421,0.91651 0.856478,0 1.644363,-0.15586 2.374743,-0.4585 l -0.06258,-0.62496 c -0.743491,0.29003 -1.494059,0.43782 -2.249653,0.43782 -0.768208,0 -1.383592,-0.24211 -1.874376,-0.70818 -0.478674,-0.47869 -0.745507,-1.14298 -0.770728,-1.99946 h 5.269523 c -0.03731,-2.2547 -0.968954,-3.37499 -2.770194,-3.37499 l 0,0 z m 7.18627,0 c -0.944755,0 -1.675128,0.43531 -2.165919,1.29179 -0.0126,-0.50391 -0.05803,-0.90188 -0.146272,-1.16619 h -0.687001 c 0.08827,0.71777 0.12509,1.26354 0.12509,1.60401 v 4.83271 h 0.728861 v -3.89552 c 0,-0.5039 0.200753,-0.96745 0.603785,-1.39569 0.403018,-0.44086 0.871101,-0.66632 1.37501,-0.66632 1.082956,0 1.624693,0.68951 1.624693,2.06201 v 3.89552 h 0.728861 v -4.08266 c 0,-0.47868 0.17654,-0.91398 0.541226,-1.29128 0.378301,-0.39041 0.821177,-0.58309 1.312458,-0.58309 0.566454,0 1.001756,0.22547 1.291794,0.66632 0.302134,0.42824 0.437318,0.99822 0.437318,1.7286 v 3.56211 h 0.75005 v -3.58279 c 0,-0.91953 -0.200753,-1.63781 -0.604282,-2.16642 -0.403018,-0.54173 -0.96089,-0.8126 -1.666049,-0.8126 -1.032521,0 -1.808296,0.48019 -2.312198,1.43755 -0.428246,-0.95736 -1.068333,-1.43806 -1.937425,-1.43806 l 0,0 z m 10.581431,0 c -0.755601,0 -1.481949,0.10693 -2.186604,0.33392 l 0.103908,0.687 c 0.919534,-0.28952 1.600487,-0.43732 2.041333,-0.43732 0.692552,0 1.168209,0.24615 1.457729,0.75005 0.189154,0.31526 0.29155,0.68801 0.29155,1.10415 v 0.10391 h -0.12509 c -2.783823,0 -4.165889,0.81662 -4.165889,2.4161 0,0.55434 0.20125,0.97653 0.604282,1.29178 0.403018,0.31475 0.882714,0.47919 1.437044,0.47919 0.944755,0 1.712466,-0.36519 2.29152,-1.08296 l 0.25018,1.0416 0.666323,-0.1251 c -0.150815,-0.51651 -0.229502,-1.0542 -0.229502,-1.58332 v -2.29102 c 0,-1.78913 -0.811594,-2.68798 -2.436784,-2.68798 l 0,0 z m 18.809294,0 c -0.932148,0 -1.707412,0.31576 -2.312198,0.95837 -0.604275,0.64262 -0.915999,1.50415 -0.915999,2.56239 0,0.93163 0.311724,1.68622 0.915999,2.291 0.604786,0.60429 1.39216,0.91651 2.374743,0.91651 0.856478,0 1.665041,-0.15586 2.395932,-0.4585 l -0.06258,-0.62496 c -0.743491,0.29003 -1.493541,0.43782 -2.249646,0.43782 -0.768208,0 -1.40427,-0.24211 -1.895558,-0.70818 -0.478681,-0.47869 -0.724836,-1.14298 -0.75005,-1.99946 h 5.249342 c -0.03836,-2.2547 -0.94878,-3.37499 -2.75002,-3.37499 l 0,0 z m 36.555809,0 c -0.944762,0 -1.675142,0.43531 -2.165926,1.29179 -0.0126,-0.50391 -0.05803,-0.90188 -0.146272,-1.16619 h -0.707686 c 0.08827,0.71777 0.145768,1.26354 0.145768,1.60401 v 4.83271 h 0.729379 v -3.89552 c 0,-0.5039 0.200746,-0.96745 0.603764,-1.39569 0.403018,-0.44086 0.850437,-0.66632 1.353828,-0.66632 1.082963,0 1.624693,0.68951 1.624693,2.06201 v 3.89552 h 0.750057 v -4.08266 c 0,-0.47868 0.17654,-0.91398 0.541737,-1.29128 0.377797,-0.39041 0.821163,-0.58309 1.312458,-0.58309 0.566443,0 0.980553,0.22547 1.270593,0.66632 0.30214,0.42824 0.458,0.99822 0.458,1.7286 v 3.56211 h 0.72886 v -3.58279 c 0,-0.91953 -0.20074,-1.63781 -0.60427,-2.16642 -0.40302,-0.54173 -0.94022,-0.8126 -1.645374,-0.8126 -1.033018,0 -1.808289,0.48019 -2.312198,1.43755 -0.428232,-0.95736 -1.067822,-1.43806 -1.937411,-1.43806 l 0,0 z m 13.914023,0 c -0.93214,0 -1.70741,0.31576 -2.31219,0.95837 -0.60428,0.64262 -0.89583,1.50415 -0.89583,2.56239 0,0.93163 0.29155,1.68622 0.89583,2.291 0.60478,0.60429 1.41334,0.91651 2.39592,0.91651 0.85649,0 1.64386,-0.15586 2.37475,-0.4585 l -0.0626,-0.62496 c -0.74298,0.29003 -1.49355,0.43782 -2.24964,0.43782 -0.76821,0 -1.3836,-0.24211 -1.87488,-0.70818 -0.47868,-0.47869 -0.74552,-1.14298 -0.77023,-1.99946 h 5.26953 c -0.0384,-2.2547 -0.96947,-3.37499 -2.77071,-3.37499 l 0,0 z m 7.20746,0 c -0.95736,0 -1.69581,0.43531 -2.1871,1.29179 -0.0126,-0.50391 -0.0575,-0.90188 -0.14577,-1.16619 h -0.68751 c 0.0883,0.71777 0.12509,1.26354 0.12509,1.60401 v 4.83271 h 0.72937 v -3.89552 c 0,-0.5039 0.20076,-0.96745 0.60428,-1.39569 0.41563,-0.44086 0.87917,-0.66632 1.39518,-0.66632 1.28473,0 1.93742,0.77527 1.93742,2.31168 v 3.64535 h 0.72888 v -3.64535 c -5.1e-4,-1.93943 -0.82471,-2.91647 -2.49984,-2.91647 l 0,0 z m 11.7688,0 c -0.96947,0 -1.7619,0.32434 -2.35407,0.97906 -0.59167,0.64211 -0.87463,1.42998 -0.87463,2.37473 0,0.94476 0.28296,1.76139 0.87463,2.41611 0.59217,0.65523 1.3841,0.97905 2.35407,0.97905 0.96997,0 1.7412,-0.32433 2.33288,-0.97905 0.59216,-0.65472 0.89582,-1.47135 0.89582,-2.41611 0,-0.94475 -0.30366,-1.73213 -0.89582,-2.37473 -0.59218,-0.65472 -1.36341,-0.97906 -2.33288,-0.97906 z m 10.93502,0 c -0.75561,0 -1.48195,0.10693 -2.18711,0.33392 l 0.0837,0.687 c 0.91903,-0.28952 1.60048,-0.43732 2.04083,-0.43732 0.69305,0 1.18989,0.24615 1.47942,0.75005 0.18915,0.31526 0.29205,0.68801 0.29205,1.10415 v 0.10391 h -0.12509 c -2.78382,0 -4.16589,0.81662 -4.16589,2.4161 0,0.55434 0.20075,0.97653 0.60377,1.29178 0.40302,0.31475 0.88322,0.47919 1.43756,0.47919 0.94475,0 1.71195,-0.36519 2.29102,-1.08296 l 0.25069,1.0416 0.66631,-0.1251 c -0.15132,-0.51651 -0.22951,-1.0542 -0.22951,-1.58332 v -2.29102 c -5e-4,-1.78913 -0.81309,-2.68798 -2.43778,-2.68798 l 0,0 z m 23.60013,0 c -0.8943,0 -1.55507,0.47213 -1.9581,1.41688 0,-0.57957 -0.0696,-1.01437 -0.20781,-1.29179 h -0.62547 c 0.1261,0.45347 0.18764,1.15913 0.18764,2.10388 v 4.33235 h 0.75005 v -3.45771 c 0,-0.29004 0.003,-0.50743 0.0419,-0.64614 0.31476,-1.20906 0.96696,-1.81183 1.93692,-1.81183 0.11299,0 0.19067,0.008 0.22901,0.0212 v -0.62496 c -0.12611,-0.0247 -0.2406,-0.0414 -0.3541,-0.0419 l 0,0 z m 4.24912,0 c -0.93163,0 -1.70691,0.31576 -2.31169,0.95837 -0.60479,0.64262 -0.916,1.50415 -0.916,2.56239 0,0.93163 0.31172,1.68622 0.916,2.291 0.60478,0.60429 1.39266,0.91651 2.37423,0.91651 0.857,0 1.64437,-0.15586 2.37476,-0.4585 l -0.0419,-0.62496 c -0.743,0.29003 -1.49405,0.43782 -2.24914,0.43782 -0.76872,0 -1.40427,-0.24211 -1.89607,-0.70818 -0.47817,-0.47869 -0.72433,-1.14298 -0.74955,-1.99946 h 5.24885 c -0.0373,-2.2547 -0.94778,-3.37499 -2.74951,-3.37499 l 0,0 z m 6.22841,0 c -0.66733,0 -1.18485,0.16848 -1.56215,0.52105 -0.36518,0.35259 -0.56242,0.77931 -0.56242,1.2706 0,0.80605 0.5826,1.39721 1.7286,1.74979 0.99571,0.30263 1.4996,0.75761 1.4996,1.375 0,0.79394 -0.54526,1.18737 -1.6035,1.18737 -0.45347,0 -0.97855,-0.1725 -1.58383,-0.50037 l -0.27037,0.60429 c 0.57906,0.33997 1.18233,0.52054 1.81234,0.52054 0.73038,0 1.28421,-0.18915 1.68724,-0.54173 0.41613,-0.35259 0.62444,-0.79142 0.62444,-1.33315 0,-0.86909 -0.5614,-1.50514 -1.70791,-1.89555 -0.98258,-0.34048 -1.47942,-0.74601 -1.47942,-1.24992 0,-0.31526 0.10642,-0.57754 0.3339,-0.79142 0.227,-0.21386 0.55486,-0.3334 0.95839,-0.3334 0.56644,0 1.03806,0.15586 1.41687,0.4585 l 0.29104,-0.60427 c -0.39041,-0.28903 -0.9155,-0.43682 -1.58282,-0.43733 l 0,0 z m 5.47784,0 c -0.7556,0 -1.48144,0.10693 -2.1866,0.33392 l 0.0832,0.687 c 0.91953,-0.28952 1.60048,-0.43732 2.04134,-0.43732 0.69305,0 1.18988,0.24615 1.47942,0.75005 0.18914,0.31526 0.29205,0.68801 0.29205,1.10415 v 0.10391 h -0.12561 c -2.78381,0 -4.16588,0.81662 -4.16588,2.4161 0,0.55434 0.20126,0.97653 0.60377,1.29178 0.40353,0.31475 0.88321,0.47919 1.43755,0.47919 0.94527,0 1.71247,-0.36519 2.29102,-1.08296 l 0.24968,1.0416 0.66733,-0.1251 c -0.15132,-0.51651 -0.22951,-1.0542 -0.22951,-1.58332 v -2.29102 c -5e-4,-1.78913 -0.8131,-2.68798 -2.43779,-2.68798 l 0,0 z m 14.74732,0 c -0.96947,0 -1.76139,0.32434 -2.35356,0.97906 -0.59167,0.64211 -0.87464,1.42998 -0.87464,2.37473 0,0.94476 0.28297,1.76139 0.87464,2.41611 0.59217,0.65523 1.38409,0.97905 2.35356,0.97905 0.96997,0 1.74171,-0.32433 2.33288,-0.97905 0.59216,-0.65472 0.89531,-1.47135 0.89531,-2.41611 0,-0.94475 -0.30365,-1.73213 -0.89531,-2.37473 -0.59117,-0.65472 -1.36291,-0.97906 -2.33288,-0.97906 z m 6.66572,0 c -0.66733,0 -1.18384,0.16848 -1.56265,0.52105 -0.36519,0.35259 -0.54123,0.77931 -0.54123,1.2706 0,0.80605 0.56191,1.39721 1.70842,1.74979 0.99519,0.30263 1.50011,0.75761 1.50011,1.375 0,0.79394 -0.52559,1.18737 -1.58383,1.18737 -0.45347,0 -0.97805,-0.1725 -1.58283,-0.50037 l -0.29205,0.60429 c 0.57956,0.33997 1.18233,0.52054 1.81233,0.52054 0.73089,0 1.3049,-0.18915 1.70842,-0.54173 0.41513,-0.35259 0.62446,-0.79142 0.62446,-1.33315 0,-0.86909 -0.58259,-1.50514 -1.72911,-1.89555 -0.98258,-0.34048 -1.47841,-0.74601 -1.47841,-1.24992 0,-0.31526 0.12711,-0.57754 0.35409,-0.79142 0.22648,-0.21386 0.53417,-0.3334 0.93668,-0.3334 0.56746,0 1.03908,0.15586 1.41689,0.4585 l 0.31222,-0.60427 c -0.3899,-0.28903 -0.93568,-0.43682 -1.60351,-0.43733 l 0,0 z m 28.64117,0 c -0.89431,0 -1.55508,0.47213 -1.9581,1.41688 0,-0.57957 -0.0701,-1.01437 -0.20781,-1.29179 h -0.60428 c 0.12559,0.45347 0.18764,1.15913 0.18764,2.10388 v 4.33235 h 0.72886 v -3.45771 c 0,-0.29004 0.0242,-0.50743 0.0626,-0.64614 0.31475,-1.20906 0.94626,-1.81183 1.91625,-1.81183 0.11348,0 0.19115,0.008 0.22949,0.0212 v -0.62496 c -0.1271,-0.0247 -0.2416,-0.0414 -0.3546,-0.0419 l 0,0 z m 3.60349,0 c -0.75611,0 -1.48195,0.10693 -2.18761,0.33392 l 0.0837,0.687 c 0.91903,-0.28952 1.60048,-0.43732 2.04133,-0.43732 0.69256,0 1.18889,0.24615 1.47892,0.75005 0.18865,0.31526 0.29155,0.68801 0.29155,1.10415 v 0.10391 h -0.12509 c -2.78331,0 -4.16538,0.81662 -4.16538,2.4161 0,0.55434 0.20024,0.97653 0.60376,1.29178 0.40252,0.31475 0.88222,0.47919 1.43757,0.47919 0.94424,0 1.69076,-0.36519 2.26983,-1.08296 l 0.27086,1.0416 0.66632,-0.1251 c -0.15132,-0.51651 -0.22901,-1.0542 -0.22901,-1.58332 v -2.29102 c 0,-1.78913 -0.8126,-2.68798 -2.43677,-2.68798 l 0,0 z m 21.43321,0 c -0.7551,0 -1.48144,0.10693 -2.1866,0.33392 l 0.1034,0.687 c 0.92003,-0.28952 1.5798,-0.43732 2.02065,-0.43732 0.69306,0 1.18889,0.24615 1.47942,0.75005 0.18916,0.31526 0.29206,0.68801 0.29206,1.10415 v 0.10391 h -0.1261 c -2.78332,0 -4.16539,0.81662 -4.16539,2.4161 0,0.55434 0.20075,0.97653 0.60377,1.29178 0.40353,0.31475 0.88322,0.47919 1.43757,0.47919 0.94474,0 1.71245,-0.36519 2.291,-1.08296 l 0.24969,1.0416 0.66632,-0.1251 c -0.15082,-0.51651 -0.2285,-1.0542 -0.2285,-1.58332 v -2.29102 c 0,-1.78913 -0.8126,-2.68798 -2.43729,-2.68798 l 0,0 z m 14.74731,0 c -0.96946,0 -1.76138,0.32434 -2.35406,0.97906 -0.59117,0.64211 -0.87413,1.42998 -0.87413,2.37473 0,0.94476 0.28347,1.76139 0.87413,2.41611 0.59268,0.65523 1.3846,0.97905 2.35406,0.97905 0.96997,0 1.74121,-0.32433 2.33288,-0.97905 0.59218,-0.65472 0.89531,-1.47135 0.89531,-2.41611 0,-0.94475 -0.30363,-1.73213 -0.89531,-2.37473 -0.59167,-0.65472 -1.36291,-0.97906 -2.33288,-0.97906 z m 6.66522,0 c -0.66682,0 -1.18384,0.16848 -1.56215,0.52105 -0.36569,0.35259 -0.54173,0.77931 -0.54173,1.2706 0,0.80605 0.56241,1.39721 1.70894,1.74979 0.99519,0.30263 1.50009,0.75761 1.50009,1.375 0,0.79394 -0.52559,1.18737 -1.58383,1.18737 -0.45346,0 -0.97805,-0.1725 -1.58333,-0.50037 l -0.29155,0.60429 c 0.57957,0.33997 1.18233,0.52054 1.81234,0.52054 0.73037,0 1.30489,-0.18915 1.70842,-0.54173 0.41512,-0.35259 0.62445,-0.79142 0.62445,-1.33315 0,-0.86909 -0.58259,-1.50514 -1.7291,-1.89555 -0.98208,-0.34048 -1.47842,-0.74601 -1.47842,-1.24992 0,-0.31526 0.12712,-0.57754 0.3541,-0.79142 0.22597,-0.21386 0.53417,-0.3334 0.93668,-0.3334 0.56695,0 1.03908,0.15586 1.41687,0.4585 l 0.31224,-0.60427 c -0.38991,-0.28903 -0.93618,-0.43682 -1.60402,-0.43733 l 0,0 z m -196.860531,0.10441 c -0.579565,0 -1.071357,0.20934 -1.499596,0.62496 -0.428246,0.41563 -0.646149,0.96544 -0.646149,1.64537 0,0.56695 0.220934,1.10062 0.687505,1.60401 -0.126098,0.37781 -0.187642,0.68953 -0.187642,0.91601 0,0.37831 0.192185,0.67741 0.5831,0.91651 0.226982,0.15081 0.645134,0.33189 1.249913,0.52054 0.995197,0.32735 1.499603,0.79091 1.499603,1.39569 0,0.33997 -0.155869,0.61941 -0.458003,0.83277 -0.302645,0.21438 -0.679938,0.31273 -1.145501,0.31273 -0.541233,0 -1.082963,-0.14324 -1.624693,-0.4585 l -0.270872,0.60428 c 0.554344,0.33996 1.165689,0.49986 1.833013,0.49986 0.755601,0 1.33819,-0.16796 1.729105,-0.52055 0.389907,-0.34047 0.583093,-0.7914 0.583093,-1.33314 0,-0.89431 -0.602763,-1.51422 -1.812335,-1.85419 -1.019907,-0.29003 -1.541463,-0.58864 -1.541463,-0.91651 0,-0.17654 0.04942,-0.35208 0.12509,-0.54173 0.27692,0.13871 0.609329,0.20832 0.999733,0.20832 0.642117,0 1.175776,-0.20932 1.603511,-0.62495 0.440853,-0.41564 0.666316,-0.98158 0.666316,-1.68725 0,-0.57956 -0.274897,-1.12129 -0.791406,-1.62469 l 0.937181,0.0837 v -0.60429 h -2.519503 l 0,7e-4 z m 77.799051,0 c -0.57956,0 -1.09254,0.20934 -1.52027,0.62496 -0.42825,0.41563 -0.64565,0.96544 -0.64565,1.64537 0,0.56695 0.24161,1.10062 0.70819,1.60401 -0.1261,0.37781 -0.18765,0.68953 -0.18765,0.91601 0,0.37831 0.19269,0.67741 0.5826,0.91651 0.22698,0.15081 0.64514,0.33189 1.24992,0.52054 0.9952,0.32735 1.47941,0.79091 1.47941,1.39569 0,0.33997 -0.13517,0.61941 -0.43781,0.83277 -0.30214,0.21438 -0.70062,0.31273 -1.16619,0.31273 -0.54173,0 -1.08296,-0.14324 -1.6247,-0.4585 l -0.24967,0.60428 c 0.55384,0.33996 1.16569,0.49986 1.83251,0.49986 0.7561,0 1.3175,-0.16796 1.70842,-0.52055 0.3899,-0.34047 0.58259,-0.7914 0.58259,-1.33314 0,-0.89431 -0.60227,-1.51422 -1.81184,-1.85419 -1.0199,-0.29003 -1.52027,-0.58864 -1.52027,-0.91651 0,-0.17654 0.0288,-0.35208 0.10441,-0.54173 0.27692,0.13871 0.60932,0.20832 0.99923,0.20832 0.6421,0 1.17576,-0.20932 1.60401,-0.62495 0.44136,-0.41564 0.66683,-0.98158 0.66683,-1.68725 0,-0.57956 -0.25423,-1.12129 -0.77073,-1.62469 l 0.916,0.0837 v -0.60429 h -2.49934 l 0,7e-4 z m -149.2027501,0.0212 v 6.43622 h 0.728875 v -6.43622 h -0.728875 z m 66.8630371,0 v 6.43622 h 0.728868 v -6.43622 h -0.728868 z m 8.560783,0 v 3.62416 c 0,1.99038 0.775768,2.97852 2.312191,2.97852 1.058239,0 1.861762,-0.43531 2.416106,-1.29179 0.05047,0.40302 0.140728,0.82167 0.292047,1.24992 l 0.708183,-0.14578 c -0.214368,-0.56695 -0.33341,-1.09658 -0.33341,-1.56214 v -4.8534 h -0.729372 v 3.89503 c 0,0.61739 -0.230006,1.13845 -0.70819,1.54196 -0.440853,0.35209 -0.937181,0.52055 -1.478918,0.52055 -1.158612,0 -1.749783,-0.82923 -1.749783,-2.47915 v -3.47839 H 82.52685 l 0,5.1e-4 z m 7.373905,0 v 6.43622 h 0.75005 v -6.43622 h -0.75005 z m 14.059805,0 v 6.43622 h 0.75005 v -6.43622 h -0.75005 z m 102.87761,0 2.66679,5.9989 c 0.0373,0.11349 0.0626,0.19167 0.0626,0.22951 -0.55384,1.47387 -1.36643,2.32279 -2.43729,2.56187 l 0.16696,0.58309 c 1.23479,-0.28952 2.21484,-1.26151 2.95784,-2.93665 l 2.83274,-6.43621 h -0.81209 l -2.25015,5.45715 -2.39494,-5.45715 h -0.79241 l 0,-5.1e-4 z m 37.63877,0 v 3.62416 c 0,1.99038 0.77628,2.97852 2.3127,2.97852 1.05825,0 1.86177,-0.43531 2.41611,-1.29179 0.051,0.40302 0.14022,0.82167 0.29154,1.24992 l 0.70819,-0.14578 c -0.21437,-0.56695 -0.31223,-1.09658 -0.31223,-1.56214 v -4.8534 h -0.75006 v 3.89503 c 0,0.61739 -0.22899,1.13845 -0.70817,1.54196 -0.44086,0.35209 -0.93668,0.52055 -1.47842,0.52055 -1.15912,0 -1.72961,-0.82923 -1.72961,-2.47915 v -3.47839 h -0.74905 -7e-4 z m -222.20995,0.45801 c 0.768712,0 1.330623,0.27893 1.707916,0.83327 0.277424,0.40302 0.425215,0.858 0.437822,1.3745 h -4.519984 c 0.08777,-0.56644 0.31374,-1.05471 0.666323,-1.45772 0.440853,-0.50391 1.015371,-0.75005 1.707923,-0.75005 l 0,0 z m 28.911533,0 c 0.604786,0 1.142484,0.20932 1.58333,0.62496 0.491295,0.44084 0.728875,1.01536 0.728875,1.7079 v 1.06228 c 0,0.60429 -0.217406,1.11727 -0.645645,1.52029 -0.428239,0.40302 -0.95333,0.60427 -1.583337,0.60427 -1.586851,0 -2.374736,-0.93517 -2.374736,-2.81206 0,-0.79394 0.200753,-1.4542 0.603771,-1.95811 0.403529,-0.50339 0.957362,-0.74953 1.687742,-0.74953 l 0,0 z m 7.644777,0 c 0.768208,0 1.350804,0.27893 1.728601,0.83327 0.27692,0.40302 0.424711,0.858 0.437829,1.3745 h -4.519991 c 0.08828,-0.56644 0.314251,-1.05471 0.666323,-1.45772 0.440342,-0.50391 0.994182,-0.75005 1.687238,-0.75005 l 0,0 z m 50.49052,0 c 0.76821,0 1.33063,0.27893 1.70842,0.83327 0.27692,0.40302 0.42471,0.858 0.43732,1.3745 h -4.51998 c 0.0883,-0.56644 0.31425,-1.05471 0.66632,-1.45772 0.44085,-0.50391 1.01536,-0.75005 1.70792,-0.75005 l 0,0 z m 57.74034,0 c 0.76771,0 1.3503,0.27893 1.72811,0.83327 0.27792,0.40302 0.40402,0.858 0.41662,1.3745 h -4.49828 c 0.0883,-0.56644 0.29256,-1.05471 0.64513,-1.45772 0.44035,-0.50391 1.01538,-0.75005 1.70842,-0.75005 l 0,0 z m 18.78761,0 c 0.60479,0 1.1213,0.20932 1.56216,0.62496 0.49178,0.44084 0.72886,1.01536 0.72886,1.7079 v 1.06228 c 0,0.60429 -0.2174,1.11727 -0.64514,1.52029 -0.42875,0.40302 -0.95383,0.60427 -1.58384,0.60427 -1.58635,0 -2.37424,-0.93517 -2.37424,-2.81206 0,-0.79394 0.20026,-1.4542 0.60379,-1.95811 0.40351,-0.50339 0.97804,-0.74953 1.70841,-0.74953 l 0,0 z m 53.63651,0 c 0.60428,0 1.14248,0.20932 1.58384,0.62496 0.49078,0.44084 0.72835,1.01536 0.72835,1.7079 v 1.06228 c 0,0.60429 -0.21739,1.11727 -0.64563,1.52029 -0.42875,0.40302 -0.95333,0.60427 -1.58283,0.60427 -1.58686,0 -2.37525,-0.93517 -2.37525,-2.81206 0,-0.79394 0.20125,-1.4542 0.60428,-1.95811 0.40353,-0.50339 0.95635,-0.74953 1.68724,-0.74953 l 0,0 z m 21.45439,0 c 0.60479,0 1.12131,0.20932 1.56266,0.62496 0.49179,0.44084 0.72836,1.01536 0.72836,1.7079 v 1.06228 c 0,0.60429 -0.2174,1.11727 -0.64464,1.52029 -0.42874,0.40302 -0.95433,0.60427 -1.58382,0.60427 -1.58687,0 -2.37424,-0.93517 -2.37424,-2.81206 0,-0.79394 0.20024,-1.4542 0.60377,-1.95811 0.40302,-0.50339 0.97754,-0.74953 1.70791,-0.74953 l 0,0 z m -132.55937,0.0419 c 0.73038,0 1.32507,0.2628 1.79114,0.79191 0.47868,0.51601 0.70819,1.15611 0.70819,1.93692 0,0.78083 -0.22951,1.45017 -0.70819,1.97878 -0.46607,0.52913 -1.06127,0.79142 -1.79114,0.79142 -0.73038,0 -1.33365,-0.26229 -1.81233,-0.79142 -0.46557,-0.52912 -0.70819,-1.19795 -0.70819,-1.97878 0,-0.78081 0.24262,-1.4204 0.70819,-1.93692 0.47868,-0.52911 1.08145,-0.79191 1.81233,-0.79191 z m 65.23784,0 c 0.73088,0 1.32557,0.2628 1.79164,0.79191 0.47919,0.51601 0.70819,1.15611 0.70819,1.93692 0,0.78083 -0.2295,1.45017 -0.70819,1.97878 -0.46607,0.52913 -1.06076,0.79142 -1.79164,0.79142 -0.73038,0 -1.33315,-0.26229 -1.81233,-0.79142 -0.46557,-0.52912 -0.70769,-1.19795 -0.70769,-1.97878 0,-0.78081 0.24162,-1.4204 0.70769,-1.93692 0.47918,-0.52911 1.08195,-0.79191 1.81233,-0.79191 z m 75.0909,0 c 0.72987,0 1.32557,0.2628 1.79115,0.79191 0.47867,0.51601 0.70869,1.15611 0.70869,1.93692 0,0.78083 -0.23002,1.45017 -0.70869,1.97878 -0.46558,0.52913 -1.06128,0.79142 -1.79115,0.79142 -0.73038,0 -1.33365,-0.26229 -1.81232,-0.79142 -0.46608,-0.52912 -0.70819,-1.19795 -0.70819,-1.97878 0,-0.78081 0.24211,-1.4204 0.70819,-1.93692 0.47917,-0.52911 1.08194,-0.79191 1.81232,-0.79191 z m -190.090899,0.062 c 0.516005,0 0.926597,0.18512 1.229242,0.56241 0.264306,0.31526 0.395451,0.66784 0.395451,1.08296 0,0.51651 -0.164444,0.91852 -0.479192,1.20806 -0.315245,0.29002 -0.692545,0.43781 -1.145501,0.43781 -0.403018,0 -0.768208,-0.13971 -1.082963,-0.41664 -0.340473,-0.30264 -0.500367,-0.70414 -0.500367,-1.20805 0,-0.45345 0.13972,-0.83932 0.41664,-1.16668 0.277424,-0.33997 0.662788,-0.49987 1.16669,-0.49987 z m 77.777359,0 c 0.51652,0 0.9266,0.18512 1.22975,0.56241 0.26431,0.31526 0.39545,0.66784 0.39545,1.08296 0,0.51651 -0.16394,0.91852 -0.47918,1.20806 -0.31476,0.29002 -0.69255,0.43781 -1.14551,0.43781 -0.40251,0 -0.7677,-0.13971 -1.08296,-0.41664 -0.34047,-0.30264 -0.49987,-0.70414 -0.49987,-1.20805 0,-0.45345 0.13973,-0.83932 0.41664,-1.16668 0.27642,-0.33997 0.66279,-0.49987 1.16568,-0.49987 z m -114.56267,2.49984 v 1.29178 c 0,0.10088 -0.04137,0.21538 -0.103908,0.35409 -0.403018,0.84387 -1.088003,1.2711 -2.0832,1.2711 -0.377797,0 -0.70616,-0.0984 -0.95837,-0.31273 -0.251699,-0.22648 -0.374773,-0.56342 -0.374773,-0.97854 5.04e-4,-1.08448 1.177792,-1.6257 3.520251,-1.6257 z m 99.1909,0 v 1.29178 c 0,0.10088 -0.0414,0.21538 -0.1044,0.35409 -0.40353,0.84387 -1.08851,1.2711 -2.0832,1.2711 -0.37781,0 -0.70616,-0.0984 -0.95787,-0.31273 -0.2522,-0.22648 -0.37478,-0.56342 -0.37478,-0.97854 0,-1.08448 1.17729,-1.6257 3.52025,-1.6257 l 0,0 z m 39.55552,0 v 1.29178 c 0,0.10088 -0.0414,0.21538 -0.10442,0.35409 -0.40352,0.84387 -1.088,1.2711 -2.08319,1.2711 -0.37779,0 -0.70617,-0.0984 -0.95837,-0.31273 -0.25221,-0.22648 -0.37478,-0.56342 -0.37478,-0.97854 0,-1.08347 1.17678,-1.62521 3.51975,-1.62521 h 7e-4 z m 53.65668,0 v 1.29178 c 0,0.10088 -0.0409,0.21538 -0.10441,0.35409 -0.40252,0.84387 -1.10869,1.2711 -2.10388,1.2711 -0.3773,0 -0.68549,-0.0984 -0.93669,-0.31273 -0.2517,-0.22648 -0.37527,-0.56342 -0.37527,-0.97854 0,-1.08448 1.17779,-1.6257 3.52025,-1.6257 z m 21.43372,0 v 1.29178 c 0,0.10088 -0.0409,0.21538 -0.10341,0.35409 -0.40352,0.84387 -1.0885,1.2711 -2.0832,1.2711 -0.37779,0 -0.70616,-0.0984 -0.95837,-0.31273 -0.2517,-0.22648 -0.37477,-0.56342 -0.37477,-0.97854 -5e-4,-1.08448 1.17678,-1.6257 3.51975,-1.6257 z"
     style="fill:#ffffff" /></svg>