<?xml version="1.0" encoding="utf-8"?>
<!-- Generator: Adobe Illustrator 14.0.0, SVG Export Plug-In . SVG Version: 6.00 Build 43363)  -->
<!DOCTYPE svg PUBLIC "-//W3C//DTD SVG 1.1//EN" "http://www.w3.org/Graphics/SVG/1.1/DTD/svg11.dtd">
<svg version="1.1"
	 id="svg2" inkscape:version="0.48.5 r10040" sodipodi:docname="logo.svg" inkscape:export-ydpi="90" inkscape:export-xdpi="90" inkscape:export-filename="/home/sam/Documentos/mono/SSEG/logo.png" xmlns:dc="http://purl.org/dc/elements/1.1/" xmlns:cc="http://creativecommons.org/ns#" xmlns:rdf="http://www.w3.org/1999/02/22-rdf-syntax-ns#" xmlns:svg="http://www.w3.org/2000/svg" xmlns:sodipodi="http://sodipodi.sourceforge.net/DTD/sodipodi-0.dtd" xmlns:inkscape="http://www.inkscape.org/namespaces/inkscape"
	 xmlns="http://www.w3.org/2000/svg" xmlns:xlink="http://www.w3.org/1999/xlink" x="0px" y="0px" width="1417.324px"
	 height="1062.992px" viewBox="0 0 1417.324 1062.992" enable-background="new 0 0 1417.324 1062.992" xml:space="preserve">
<sodipodi:namedview  id="base" inkscape:window-y="23" inkscape:window-x="-2" inkscape:window-height="666" inkscape:window-width="1366" fit-margin-bottom="0" fit-margin-right="0" inkscape:guide-bbox="true" inkscape:current-layer="layer1" inkscape:document-units="px" inkscape:pageshadow="2" inkscape:pageopacity="0.0" inkscape:window-maximized="1" inkscape:zoom="0.49497475" fit-margin-left="0" fit-margin-top="0" borderopacity="1.0" showguides="true" bordercolor="#666666" showgrid="false" pagecolor="#ffffff" inkscape:cy="511.96775" inkscape:cx="483.78144">
	</sodipodi:namedview>
<path id="path3840" inkscape:connector-curvature="0" fill="#E6E6E6" d="M813.855,285.63l98.564-0.868l87.491-87.579V99.575
	L813.855,285.63z"/>
<path id="path3818" inkscape:connector-curvature="0" fill="#F2F2F2" d="M814.804,10.172h97.39l88.56,88.561l0.11,97.499
	L814.804,10.172z"/>
<path id="path3838" sodipodi:nodetypes="cccccc" inkscape:connector-curvature="0" fill="#FFFFFF" d="M821.94,100.912l-51.192,1.172
	l2.476-49.89l42.021-42.022h96.949L821.94,100.912z"/>
<path id="path3796" inkscape:connector-curvature="0" fill="#E6E6E6" d="M541.185,10.172h96.818L451.382,197.053l0.135-97.213
	L541.185,10.172L541.185,10.172z"/>
<path id="path3836" sodipodi:nodetypes="cccccc" inkscape:connector-curvature="0" fill="#E6E6E6" d="M627.895,197.522l52.321-4.907
	l-3.604,53.625l-38.522,38.522h-97.435L627.895,197.522z"/>
<path id="path3826" inkscape:connector-curvature="0" fill="#F2F2F2" d="M451.591,99.764L638.09,284.762h-97.435l-89.063-88.223
	V99.764z"/>
<path id="path3788" inkscape:connector-curvature="0" fill="#FFFFFF" d="M540.655,10.52l97.435-0.174l274.416,274.417h-99.519
	L540.655,10.52z"/>
<path id="path4091" inkscape:connector-curvature="0" fill="#F2F2F2" d="M936.628,315.783c-4.563,0-9.291,0.403-14.205,1.28
	c-4.739,0.702-10.283,2.55-16.602,5.534c-6.143,2.808-11.572,6.504-16.311,11.067c-4.564,4.387-8.518,10.778-11.853,19.202
	c-3.158,8.424-4.749,18.18-4.749,29.237v53.437c0,10.705,1.591,20.276,4.749,28.7c3.159,8.249,7.04,14.639,11.604,19.202
	c4.738,4.563,11.057,8.775,18.955,12.637c8.072,3.861,17.715,5.823,28.946,5.823c10.706,0,21.051-2.221,31.055-6.607
	c6.143-2.633,11.501-6.143,16.064-10.531c4.563-4.387,8.403-10.592,11.563-18.665c3.335-8.248,4.997-17.747,4.997-28.453v-17.096
	c0-7.547-3.511-11.314-10.531-11.314h-45.796c-1.579,0-2.87,0.516-3.923,1.568c-0.878,1.054-1.322,2.271-1.322,3.676v2.396
	c0,3.51,1.735,5.244,5.245,5.244h43.443v15.279c-0.002,8.6-1.333,16.136-3.966,22.63c-2.456,6.493-5.522,11.594-9.208,15.279
	c-3.686,3.51-7.971,6.391-12.884,8.672c-4.914,2.105-9.313,3.51-13.174,4.212c-3.861,0.526-7.701,0.785-11.563,0.785
	c-3.86,0-7.742-0.331-11.604-1.033c-3.86-0.701-8.331-2.22-13.42-4.501c-4.915-2.281-9.2-5.234-12.886-8.92
	c-3.684-3.86-6.864-9.219-9.496-16.063c-2.633-6.845-3.924-14.753-3.924-23.703v-51.579c0-8.95,1.219-16.858,3.676-23.703
	c2.633-6.845,5.771-12.131,9.456-15.816c3.687-3.861,8.011-6.927,12.925-9.208c4.915-2.281,9.313-3.758,13.174-4.46
	c4.037-0.702,9.023-1.074,14.991-1.074c6.142,0,12.719,1.518,19.738,4.5c4.738,1.931,8.95,4.368,12.636,7.351
	c3.686,2.984,6.939,7.31,9.746,12.926c2.809,5.616,4.656,12.079,5.534,19.45c0.35,3.159,2.085,4.75,5.245,4.75h2.395
	c3.51,0,5.245-1.921,5.245-5.782c-0.879-9.126-3.057-17.106-6.566-23.951c-3.511-7.021-7.578-12.492-12.141-16.354
	c-4.564-4.036-9.736-7.247-15.528-9.704c-5.616-2.632-10.788-4.336-15.526-5.039C946.095,316.186,941.368,315.783,936.628,315.783
	L936.628,315.783z M511.947,316.815c-15.97,0-28.607,4.212-37.909,12.636c-9.301,8.424-13.958,18.325-13.958,29.733
	c0,11.232,2.808,20.544,8.424,27.916c5.792,7.195,14.99,13.628,27.627,19.243c16.497,6.67,28.617,11.842,36.34,15.527
	c5.967,2.984,11.47,6.566,16.56,10.778c6.317,5.265,9.498,12.802,9.498,22.63c0,9.652-3.955,17.746-11.852,24.24
	c-7.722,6.318-17.737,9.457-30.022,9.457c-12.109,0-23.229-2.695-33.408-8.136c-5.265-2.808-9.663-7.021-13.173-12.637
	c-3.51-5.791-5.43-12.554-5.781-20.275c-0.351-3.335-2.127-4.997-5.286-4.997h-2.353c-3.51,0-5.286,1.848-5.286,5.534
	c0.351,9.477,2.57,17.86,6.607,25.23c4.211,7.196,9.57,12.813,16.063,16.849c12.285,7.547,25.325,11.357,39.189,11.357
	c18.603,0,32.943-4.398,42.947-13.174c10.179-8.95,15.238-19.667,15.238-32.128c0-12.46-2.808-22.031-8.424-28.7
	c-7.371-8.775-22.114-17.529-44.227-26.306c-18.604-7.195-31.313-14.215-38.157-21.06c-4.915-5.089-7.393-11.852-7.393-20.276
	c0-8.6,3.511-15.806,10.531-21.598c7.02-5.791,16.849-8.671,29.485-8.671c11.759,0,21.886,3.066,30.311,9.209
	c8.423,5.967,12.894,15.61,13.421,28.948c0.175,1.404,0.763,2.623,1.816,3.675c1.054,0.878,2.199,1.321,3.428,1.321h2.643
	c1.404,0,2.622-0.516,3.675-1.569c1.053-1.229,1.569-2.561,1.569-3.965c-0.702-16.848-6.577-29.485-17.633-37.909
	C541.577,321.1,528.094,316.815,511.947,316.815L511.947,316.815z M658.463,316.815c-15.971,0-28.607,4.212-37.909,12.636
	c-9.302,8.424-13.958,18.325-13.958,29.733c0,11.232,2.808,20.544,8.424,27.916c5.792,7.195,15.032,13.628,27.668,19.243
	c16.497,6.67,28.577,11.842,36.298,15.527c5.967,2.984,11.511,6.566,16.601,10.778c6.317,5.265,9.456,12.802,9.457,22.63
	c-0.001,9.652-3.914,17.746-11.811,24.24c-7.722,6.318-17.737,9.457-30.021,9.457c-12.11,0-23.27-2.695-33.45-8.136
	c-5.265-2.808-9.663-7.021-13.173-12.637c-3.51-5.791-5.43-12.554-5.781-20.275c-0.351-3.335-2.085-4.997-5.245-4.997h-2.395
	c-3.51,0-5.244,1.848-5.244,5.534c0.351,9.477,2.53,17.86,6.566,25.23c4.212,7.196,9.57,12.813,16.064,16.849
	c12.285,7.547,25.366,11.357,39.23,11.357c18.604,0,32.902-4.398,42.906-13.174c10.178-8.95,15.28-19.667,15.28-32.128
	c0-12.46-2.809-22.031-8.425-28.7c-7.371-8.775-22.114-17.529-44.227-26.306c-18.604-7.195-31.354-14.215-38.198-21.06
	c-4.914-5.089-7.351-11.852-7.351-20.276c0-8.6,3.51-15.806,10.53-21.598c7.021-5.791,16.849-8.671,29.485-8.671
	c11.759,0,21.846,3.066,30.27,9.209c8.424,5.967,12.894,15.61,13.421,28.948c0.175,1.404,0.806,2.623,1.858,3.675
	c1.053,0.878,2.199,1.321,3.428,1.321h2.602c1.404,0,2.663-0.516,3.717-1.569c1.053-1.229,1.568-2.561,1.568-3.965
	c-0.702-16.848-6.576-29.485-17.633-37.909C688.134,321.1,674.609,316.815,658.463,316.815z M757.613,317.352
	c-3.859,0-6.555,0.888-8.135,2.643c-1.578,1.58-2.395,4.088-2.395,7.599v163.488c0,3.335,0.629,5.957,1.857,7.888
	c1.404,1.755,4.213,2.643,8.425,2.643h92.13c1.404,0,2.622-0.516,3.676-1.569c1.052-1.053,1.568-2.271,1.568-3.675v-2.395
	c0-1.58-0.517-2.798-1.568-3.676c-1.054-1.054-2.271-1.569-3.676-1.569h-89.24V330.236h89.24c1.404,0,2.622-0.444,3.676-1.321
	c1.052-1.053,1.568-2.343,1.568-3.923v-2.395c0-1.404-0.517-2.622-1.568-3.675c-1.054-1.053-2.271-1.569-3.676-1.569H757.613
	L757.613,317.352z M776.032,399.488c-1.581,0-2.872,0.517-3.923,1.568c-0.879,1.054-1.322,2.272-1.322,3.676v2.396
	c0,3.51,1.734,5.244,5.245,5.244h56.366c3.512,0,5.245-1.734,5.245-5.244v-2.396c0-1.403-0.516-2.622-1.569-3.676
	c-0.877-1.052-2.095-1.568-3.676-1.568H776.032z"/>
<path id="path3969" inkscape:connector-curvature="0" fill="#FFFFFF" d="M556.505,288.651v8.59
	c-1.098-1.798-2.709-2.685-4.832-2.685c-1.773,0-3.188,0.594-4.212,1.817c-1.023,1.224-1.527,2.793-1.527,4.667
	c0,2.047,0.537,3.724,1.61,4.997c1.074,1.249,2.513,1.858,4.336,1.858c1.997,0,3.617-0.878,4.79-2.601
	c0,0.849-0.009,1.621,0.042,2.271h1.362c-0.074-0.65-0.124-1.715-0.124-3.139v-15.775H556.505L556.505,288.651z M823.437,288.651
	v8.59c-1.098-1.798-2.707-2.685-4.83-2.685c-1.773,0-3.146,0.594-4.171,1.817c-1.024,1.224-1.569,2.793-1.569,4.667
	c0,2.047,0.537,3.724,1.61,4.997c1.073,1.249,2.556,1.858,4.378,1.858c1.997,0,3.574-0.878,4.749-2.601
	c0,0.849,0.032,1.621,0.081,2.271h1.322c-0.074-0.65-0.082-1.715-0.082-3.139v-15.775H823.437L823.437,288.651z M929.815,288.651
	v8.59c-1.098-1.798-2.709-2.685-4.832-2.685c-1.772,0-3.188,0.594-4.212,1.817c-1.023,1.224-1.527,2.793-1.527,4.667
	c0,2.047,0.537,3.724,1.611,4.997c1.073,1.249,2.513,1.858,4.335,1.858c1.997,0,3.617-0.878,4.79-2.601
	c0,0.849-0.009,1.621,0.042,2.271h1.362c-0.074-0.65-0.124-1.715-0.124-3.139v-15.775H929.815L929.815,288.651z M972.307,288.651
	v8.59c-1.098-1.798-2.708-2.685-4.83-2.685c-1.773,0-3.148,0.594-4.171,1.817c-1.024,1.224-1.528,2.793-1.528,4.667
	c0,2.047,0.536,3.724,1.609,4.997c1.074,1.249,2.515,1.858,4.337,1.858c1.997,0,3.575-0.878,4.749-2.601
	c0,0.849,0.032,1.621,0.082,2.271h1.321c-0.074-0.65-0.082-1.715-0.082-3.139v-15.775H972.307L972.307,288.651z M456.57,289.395
	c-1.648,0-2.981,0.447-4.006,1.321c-1.023,0.874-1.528,1.939-1.528,3.262c0,2.272,1.676,3.964,4.997,5.038
	c1.423,0.449,2.416,0.986,3.015,1.61c0.624,0.6,0.95,1.396,0.95,2.395c0,1.099-0.398,1.969-1.198,2.643
	c-0.799,0.649-1.905,0.991-3.304,0.991c-1.748,0-3.236-0.48-4.46-1.403l-0.578,1.28c1.323,0.899,2.925,1.363,4.873,1.363
	c1.972,0,3.526-0.537,4.625-1.611c0.974-0.898,1.445-2.037,1.445-3.386c0-1.398-0.405-2.479-1.28-3.303
	c-0.75-0.699-1.994-1.383-3.716-1.982c-2.647-0.899-3.964-2.151-3.964-3.799c0-0.799,0.268-1.507,0.867-2.106
	c0.749-0.725,1.823-1.074,3.221-1.074c1.249,0,2.436,0.293,3.51,0.867c0.2-0.35,0.394-0.772,0.619-1.197
	C459.61,289.679,458.243,289.395,456.57,289.395L456.57,289.395z M589.129,289.395c-1.648,0-2.982,0.447-4.006,1.321
	c-1.023,0.874-1.527,1.939-1.527,3.262c0,2.272,1.675,3.964,4.997,5.038c1.423,0.449,2.415,0.986,3.014,1.61
	c0.625,0.6,0.95,1.396,0.95,2.395c0,1.099-0.398,1.969-1.197,2.643c-0.799,0.649-1.906,0.991-3.304,0.991
	c-1.748,0-3.235-0.48-4.459-1.403l-0.62,1.28c1.324,0.899,2.967,1.363,4.915,1.363c1.973,0,3.526-0.537,4.625-1.611
	c0.974-0.898,1.446-2.037,1.446-3.386c0-1.398-0.407-2.479-1.281-3.303c-0.749-0.699-1.994-1.383-3.716-1.982
	c-2.647-0.899-3.965-2.151-3.965-3.799c0-0.799,0.268-1.507,0.868-2.106c0.749-0.725,1.822-1.074,3.221-1.074
	c1.248,0,2.437,0.293,3.51,0.867c0.2-0.35,0.395-0.772,0.619-1.197C592.167,289.679,590.801,289.395,589.129,289.395
	L589.129,289.395z M890.213,289.519c-2.548,0-4.557,0.896-6.03,2.643c-1.423,1.648-2.146,3.796-2.146,6.442
	c0,2.772,0.691,4.976,2.064,6.649c1.373,1.647,3.221,2.477,5.492,2.477c0.499,0,1.459-0.122,2.932-0.372l2.23-0.413
	c0.324,0,0.584,0.098,0.784,0.248v-8.548h-5.946v1.197h4.501v5.781c-1.298,0.625-2.722,0.909-4.294,0.909
	c-1.998,0-3.527-0.708-4.626-2.106c-1.073-1.423-1.61-3.334-1.61-5.781c0-2.297,0.609-4.184,1.857-5.658
	c1.275-1.473,2.836-2.229,4.709-2.229c1.448,0,2.92,0.293,4.418,0.867l0.455-1.197C893.63,289.828,892.037,289.519,890.213,289.519
	L890.213,289.519z M743.573,289.725v17.84h9.705v-1.239h-8.261v-7.558h7.352v-1.239h-7.352v-6.566h8.261v-1.239H743.573
	L743.573,289.725z M465.201,289.767c-0.35,0-0.601,0.105-0.826,0.331c-0.2,0.224-0.33,0.517-0.33,0.867s0.13,0.643,0.33,0.868
	c0.225,0.199,0.476,0.289,0.826,0.289c0.35,0,0.642-0.09,0.867-0.289c0.225-0.225,0.33-0.518,0.33-0.868s-0.105-0.643-0.33-0.867
	C465.843,289.872,465.551,289.767,465.201,289.767z M597.759,289.767c-0.349,0-0.601,0.105-0.825,0.331
	c-0.2,0.224-0.331,0.517-0.331,0.867s0.13,0.643,0.331,0.868c0.224,0.199,0.477,0.289,0.825,0.289c0.35,0,0.643-0.09,0.868-0.289
	c0.225-0.225,0.331-0.518,0.331-0.868s-0.106-0.643-0.331-0.867C598.402,289.872,598.108,289.767,597.759,289.767z M629.391,289.767
	c-0.35,0-0.642,0.105-0.867,0.331c-0.2,0.224-0.289,0.517-0.289,0.867s0.089,0.643,0.289,0.868c0.225,0.199,0.517,0.289,0.867,0.289
	s0.643-0.09,0.868-0.289c0.224-0.225,0.33-0.518,0.33-0.868s-0.106-0.643-0.33-0.867
	C630.034,289.872,629.741,289.767,629.391,289.767z M657.266,289.767c-0.35,0-0.642,0.105-0.867,0.331
	c-0.2,0.224-0.33,0.517-0.33,0.867s0.13,0.643,0.33,0.868c0.225,0.199,0.518,0.289,0.867,0.289s0.601-0.09,0.826-0.289
	c0.225-0.225,0.372-0.518,0.372-0.868s-0.147-0.643-0.372-0.867C657.867,289.872,657.615,289.767,657.266,289.767z M482.71,290.345
	l-1.487,0.702v3.758h-2.519v1.156h2.519v7.846c0,1.123,0.286,2.059,0.785,2.808c0.575,0.849,1.379,1.28,2.478,1.28
	c0.824,0,1.482-0.106,1.982-0.33l-0.124-1.157c-0.375,0.15-0.96,0.207-1.734,0.207c-1.274,0-1.899-0.952-1.899-2.85v-7.805h4.088
	v-1.156h-4.088V290.345L482.71,290.345z M692.821,290.345l-1.486,0.702v3.758h-2.52v1.156h2.52v7.846
	c0,1.123,0.243,2.059,0.743,2.808c0.574,0.849,1.42,1.28,2.519,1.28c0.824,0,1.483-0.106,1.982-0.33l-0.124-1.157
	c-0.375,0.15-0.961,0.207-1.735,0.207c-1.273,0-1.899-0.952-1.899-2.85v-7.805h4.047v-1.156h-4.047V290.345z M473.708,294.556
	c-1.324,0-2.349,0.334-3.097,1.033c-0.724,0.699-1.115,1.545-1.115,2.519c0,1.598,1.155,2.77,3.428,3.469
	c1.973,0.6,2.932,1.502,2.932,2.726c0,1.574-1.041,2.354-3.139,2.354c-0.899,0-1.94-0.342-3.138-0.992l-0.537,1.198
	c1.148,0.674,2.344,1.032,3.592,1.032c1.448,0,2.546-0.375,3.345-1.074c0.824-0.699,1.239-1.569,1.239-2.643
	c0-1.723-1.114-2.984-3.386-3.758c-1.948-0.675-2.932-1.479-2.932-2.478c0-0.625,0.211-1.145,0.661-1.569
	c0.45-0.424,1.101-0.661,1.9-0.661c1.123,0,2.058,0.309,2.808,0.909l0.578-1.198C476.072,294.85,475.031,294.557,473.708,294.556
	L473.708,294.556z M494.769,294.556c-1.848,0-3.385,0.626-4.584,1.9c-1.198,1.274-1.775,2.982-1.775,5.08
	c0,1.847,0.577,3.343,1.775,4.542c1.199,1.198,2.801,1.817,4.749,1.817c1.698,0,3.26-0.309,4.708-0.909l-0.124-1.239
	c-1.474,0.575-2.962,0.868-4.46,0.868c-1.523,0-2.743-0.48-3.716-1.404c-0.949-0.949-1.478-2.266-1.528-3.964h10.447
	C500.186,296.776,498.339,294.556,494.769,294.556L494.769,294.556z M509.015,294.556c-1.873,0-3.321,0.863-4.294,2.561
	c-0.025-0.999-0.115-1.788-0.29-2.312h-1.362c0.175,1.423,0.248,2.505,0.248,3.18v9.581h1.445v-7.723
	c0-0.999,0.398-1.918,1.197-2.767c0.799-0.874,1.727-1.321,2.726-1.321c2.147,0,3.221,1.367,3.221,4.088v7.723h1.445v-8.094
	c0-0.949,0.35-1.812,1.073-2.56c0.75-0.774,1.628-1.156,2.602-1.156c1.123,0,1.986,0.447,2.561,1.321
	c0.599,0.849,0.867,1.979,0.867,3.427v7.062h1.487v-7.103c0-1.823-0.398-3.247-1.198-4.295c-0.799-1.074-1.905-1.611-3.303-1.611
	c-2.047,0-3.585,0.952-4.584,2.85C512.007,295.508,510.739,294.556,509.015,294.556L509.015,294.556z M529.993,294.556
	c-1.498,0-2.938,0.212-4.335,0.662l0.206,1.362c1.823-0.574,3.173-0.867,4.047-0.867c1.373,0,2.316,0.488,2.89,1.487
	c0.375,0.625,0.578,1.364,0.578,2.189v0.206h-0.248c-5.519,0-8.259,1.619-8.259,4.79c0,1.099,0.399,1.936,1.198,2.561
	c0.799,0.624,1.75,0.95,2.849,0.95c1.873,0,3.395-0.724,4.543-2.147l0.496,2.065l1.321-0.248c-0.299-1.024-0.455-2.09-0.455-3.139
	v-4.542C534.825,296.338,533.215,294.556,529.993,294.556L529.993,294.556z M567.283,294.556c-1.848,0-3.385,0.626-4.584,1.9
	c-1.198,1.274-1.816,2.982-1.816,5.08c0,1.847,0.618,3.343,1.816,4.542c1.199,1.198,2.76,1.817,4.708,1.817
	c1.698,0,3.301-0.309,4.75-0.909l-0.124-1.239c-1.474,0.575-2.961,0.868-4.46,0.868c-1.523,0-2.784-0.48-3.758-1.404
	c-0.949-0.949-1.437-2.266-1.487-3.964h10.407C572.66,296.776,570.854,294.556,567.283,294.556L567.283,294.556z M639.756,294.556
	c-1.873,0-3.321,0.863-4.294,2.561c-0.025-0.999-0.115-1.788-0.29-2.312h-1.403c0.175,1.423,0.289,2.505,0.289,3.18v9.581h1.446
	v-7.723c0-0.999,0.398-1.918,1.197-2.767c0.799-0.874,1.686-1.321,2.684-1.321c2.147,0,3.221,1.367,3.221,4.088v7.723h1.487v-8.094
	c0-0.949,0.35-1.812,1.074-2.56c0.749-0.774,1.628-1.156,2.602-1.156c1.123,0,1.944,0.447,2.519,1.321
	c0.599,0.849,0.908,1.979,0.908,3.427v7.062h1.445v-7.103c0-1.823-0.398-3.247-1.198-4.295c-0.799-1.074-1.864-1.611-3.262-1.611
	c-2.048,0-3.585,0.952-4.584,2.85C642.748,295.508,641.48,294.556,639.756,294.556L639.756,294.556z M667.342,294.556
	c-1.848,0-3.385,0.626-4.584,1.9c-1.198,1.274-1.776,2.982-1.776,5.08c0,1.847,0.578,3.343,1.776,4.542
	c1.199,1.198,2.802,1.817,4.75,1.817c1.698,0,3.259-0.309,4.708-0.909l-0.124-1.239c-1.473,0.575-2.961,0.868-4.46,0.868
	c-1.523,0-2.743-0.48-3.717-1.404c-0.949-0.949-1.478-2.266-1.527-3.964h10.447C672.759,296.776,670.913,294.556,667.342,294.556
	L667.342,294.556z M681.63,294.556c-1.898,0-3.362,0.863-4.336,2.561c-0.025-0.999-0.114-1.788-0.289-2.312h-1.363
	c0.175,1.423,0.248,2.505,0.248,3.18v9.581h1.446v-7.723c0-0.999,0.398-1.918,1.198-2.767c0.824-0.874,1.743-1.321,2.766-1.321
	c2.547,0,3.841,1.537,3.841,4.583v7.227h1.445v-7.227C686.585,296.493,684.951,294.556,681.63,294.556L681.63,294.556z
	 M704.962,294.556c-1.922,0-3.493,0.643-4.667,1.941c-1.173,1.273-1.734,2.835-1.734,4.708c0,1.873,0.561,3.492,1.734,4.79
	c1.174,1.299,2.744,1.941,4.667,1.941c1.923,0,3.452-0.643,4.625-1.941c1.174-1.298,1.775-2.917,1.775-4.79
	c0-1.873-0.602-3.434-1.775-4.708C708.414,295.199,706.885,294.556,704.962,294.556z M726.642,294.556
	c-1.498,0-2.938,0.212-4.336,0.662l0.165,1.362c1.822-0.574,3.173-0.867,4.046-0.867c1.375,0,2.359,0.488,2.934,1.487
	c0.374,0.625,0.578,1.364,0.578,2.189v0.206h-0.248c-5.519,0-8.26,1.619-8.26,4.79c0,1.099,0.398,1.936,1.197,2.561
	c0.799,0.624,1.752,0.95,2.85,0.95c1.873,0,3.395-0.724,4.543-2.147l0.496,2.065l1.321-0.248c-0.3-1.024-0.454-2.09-0.454-3.139
	v-4.542C731.474,296.338,729.863,294.556,726.642,294.556L726.642,294.556z M773.429,294.556c-1.772,0-3.082,0.936-3.882,2.809
	c0-1.149-0.138-2.011-0.412-2.561h-1.239c0.25,0.899,0.371,2.298,0.371,4.171v8.589h1.487v-6.855c0-0.575,0.007-1.006,0.083-1.281
	c0.623-2.397,1.917-3.592,3.84-3.592c0.225,0,0.379,0.016,0.455,0.042v-1.239C773.881,294.589,773.654,294.557,773.429,294.556
	L773.429,294.556z M781.853,294.556c-1.848,0-3.385,0.626-4.583,1.9c-1.198,1.274-1.816,2.982-1.816,5.08
	c0,1.847,0.618,3.343,1.816,4.542c1.198,1.198,2.761,1.817,4.707,1.817c1.698,0,3.261-0.309,4.708-0.909l-0.082-1.239
	c-1.474,0.575-2.963,0.868-4.46,0.868c-1.524,0-2.784-0.48-3.759-1.404c-0.948-0.949-1.436-2.266-1.486-3.964h10.406
	C787.23,296.776,785.425,294.556,781.853,294.556L781.853,294.556z M794.201,294.556c-1.322,0-2.348,0.334-3.097,1.033
	c-0.724,0.699-1.114,1.545-1.114,2.519c0,1.598,1.154,2.77,3.426,3.469c1.975,0.6,2.974,1.502,2.974,2.726
	c0,1.574-1.081,2.354-3.179,2.354c-0.898,0-1.94-0.342-3.14-0.992l-0.536,1.198c1.148,0.674,2.344,1.032,3.593,1.032
	c1.448,0,2.546-0.375,3.345-1.074c0.824-0.699,1.238-1.569,1.238-2.643c0-1.723-1.113-2.984-3.386-3.758
	c-1.948-0.675-2.933-1.479-2.933-2.478c0-0.625,0.211-1.145,0.662-1.569c0.449-0.424,1.1-0.661,1.899-0.661
	c1.123,0,2.058,0.309,2.809,0.909l0.577-1.198C796.566,294.85,795.524,294.557,794.201,294.556L794.201,294.556z M805.062,294.556
	c-1.498,0-2.938,0.212-4.336,0.662l0.164,1.362c1.823-0.574,3.174-0.867,4.047-0.867c1.375,0,2.359,0.488,2.934,1.487
	c0.374,0.625,0.578,1.364,0.578,2.189v0.206H808.2c-5.519,0-8.259,1.619-8.259,4.79c0,1.099,0.398,1.936,1.197,2.561
	c0.8,0.624,1.752,0.95,2.85,0.95c1.873,0,3.395-0.724,4.543-2.147l0.494,2.065l1.323-0.248c-0.3-1.024-0.454-2.09-0.454-3.139
	v-4.542C809.894,296.338,808.283,294.556,805.062,294.556L805.062,294.556z M834.298,294.556c-1.922,0-3.492,0.643-4.666,1.941
	c-1.173,1.273-1.734,2.835-1.734,4.708c0,1.873,0.562,3.492,1.734,4.79c1.174,1.299,2.744,1.941,4.666,1.941
	c1.923,0,3.453-0.643,4.625-1.941c1.174-1.298,1.775-2.917,1.775-4.79c0-1.873-0.602-3.434-1.775-4.708
	C837.751,295.199,836.221,294.556,834.298,294.556z M847.513,294.556c-1.323,0-2.348,0.334-3.098,1.033
	c-0.724,0.699-1.073,1.545-1.073,2.519c0,1.598,1.114,2.77,3.387,3.469c1.973,0.6,2.974,1.502,2.974,2.726
	c0,1.574-1.041,2.354-3.14,2.354c-0.899,0-1.938-0.342-3.138-0.992l-0.578,1.198c1.148,0.674,2.344,1.032,3.592,1.032
	c1.449,0,2.588-0.375,3.387-1.074c0.824-0.699,1.238-1.569,1.238-2.643c0-1.723-1.154-2.984-3.428-3.758
	c-1.947-0.675-2.931-1.479-2.931-2.478c0-0.625,0.252-1.145,0.702-1.569c0.449-0.424,1.059-0.661,1.857-0.661
	c1.125,0,2.061,0.309,2.809,0.909l0.619-1.198C849.919,294.85,848.837,294.557,847.513,294.556L847.513,294.556z M904.294,294.556
	c-1.772,0-3.082,0.936-3.882,2.809c0-1.149-0.139-2.011-0.412-2.561h-1.198c0.25,0.899,0.372,2.298,0.372,4.171v8.589h1.445v-6.855
	c0-0.575,0.048-1.006,0.124-1.281c0.623-2.397,1.876-3.592,3.799-3.592c0.225,0,0.379,0.016,0.455,0.042v-1.239
	C904.747,294.589,904.519,294.557,904.294,294.556L904.294,294.556z M911.439,294.556c-1.499,0-2.938,0.212-4.337,0.662l0.166,1.362
	c1.822-0.574,3.173-0.867,4.047-0.867c1.373,0,2.357,0.488,2.932,1.487c0.374,0.625,0.578,1.364,0.578,2.189v0.206h-0.248
	c-5.518,0-8.258,1.619-8.258,4.79c0,1.099,0.397,1.936,1.197,2.561c0.798,0.624,1.749,0.95,2.85,0.95c1.872,0,3.352-0.724,4.5-2.147
	l0.537,2.065l1.321-0.248c-0.3-1.024-0.454-2.09-0.454-3.139v-4.542C916.27,296.338,914.66,294.556,911.439,294.556L911.439,294.556
	z M953.931,294.556c-1.497,0-2.937,0.212-4.335,0.662l0.205,1.362c1.824-0.574,3.132-0.867,4.006-0.867
	c1.374,0,2.357,0.488,2.933,1.487c0.375,0.625,0.579,1.364,0.579,2.189v0.206h-0.25c-5.518,0-8.258,1.619-8.258,4.79
	c0,1.099,0.398,1.936,1.197,2.561c0.8,0.624,1.751,0.95,2.85,0.95c1.873,0,3.395-0.724,4.542-2.147l0.495,2.065l1.321-0.248
	c-0.299-1.024-0.453-2.09-0.453-3.139v-4.542C958.763,296.338,957.152,294.556,953.931,294.556L953.931,294.556z M983.168,294.556
	c-1.922,0-3.492,0.643-4.667,1.941c-1.172,1.273-1.733,2.835-1.733,4.708c0,1.873,0.562,3.492,1.733,4.79
	c1.175,1.299,2.745,1.941,4.667,1.941c1.923,0,3.452-0.643,4.625-1.941c1.174-1.298,1.775-2.917,1.775-4.79
	c0-1.873-0.602-3.434-1.775-4.708C986.621,295.199,985.091,294.556,983.168,294.556z M996.382,294.556
	c-1.322,0-2.347,0.334-3.097,1.033c-0.725,0.699-1.074,1.545-1.074,2.519c0,1.598,1.115,2.77,3.388,3.469
	c1.973,0.6,2.974,1.502,2.974,2.726c0,1.574-1.042,2.354-3.14,2.354c-0.899,0-1.939-0.342-3.139-0.992l-0.578,1.198
	c1.149,0.674,2.344,1.032,3.593,1.032c1.448,0,2.587-0.375,3.387-1.074c0.823-0.699,1.238-1.569,1.238-2.643
	c0-1.723-1.155-2.984-3.428-3.758c-1.947-0.675-2.931-1.479-2.931-2.478c0-0.625,0.252-1.145,0.702-1.569
	c0.448-0.424,1.059-0.661,1.857-0.661c1.124,0,2.06,0.309,2.809,0.909l0.619-1.198C998.79,294.85,997.707,294.557,996.382,294.556
	L996.382,294.556z M606.101,294.763c-1.149,0-2.124,0.415-2.973,1.239c-0.849,0.824-1.281,1.914-1.281,3.262
	c0,1.124,0.438,2.182,1.363,3.18c-0.25,0.749-0.372,1.367-0.372,1.816c0,0.75,0.381,1.343,1.156,1.817
	c0.45,0.299,1.279,0.658,2.478,1.032c1.973,0.649,2.973,1.568,2.973,2.767c0,0.674-0.309,1.228-0.908,1.651
	c-0.6,0.425-1.348,0.62-2.271,0.62c-1.073,0-2.147-0.284-3.221-0.909l-0.537,1.198c1.099,0.674,2.311,0.991,3.634,0.991
	c1.498,0,2.653-0.333,3.428-1.032c0.773-0.675,1.156-1.569,1.156-2.643c0-1.773-1.195-3.002-3.593-3.676
	c-2.022-0.575-3.056-1.167-3.056-1.817c0-0.35,0.098-0.698,0.248-1.074c0.549,0.275,1.208,0.413,1.982,0.413
	c1.273,0,2.331-0.415,3.179-1.239c0.874-0.824,1.321-1.946,1.321-3.345c0-1.149-0.545-2.223-1.569-3.221l1.858,0.166v-1.198H606.101
	L606.101,294.763z M760.339,294.763c-1.15,0-2.166,0.415-3.015,1.239c-0.849,0.824-1.28,1.914-1.28,3.262
	c0,1.124,0.479,2.182,1.404,3.18c-0.25,0.749-0.371,1.367-0.371,1.816c0,0.75,0.381,1.343,1.154,1.817
	c0.451,0.299,1.279,0.658,2.479,1.032c1.973,0.649,2.933,1.568,2.933,2.767c0,0.674-0.269,1.228-0.868,1.651
	c-0.599,0.425-1.389,0.62-2.313,0.62c-1.073,0-2.146-0.284-3.221-0.909l-0.495,1.198c1.099,0.674,2.311,0.991,3.634,0.991
	c1.498,0,2.611-0.333,3.387-1.032c0.773-0.675,1.154-1.569,1.154-2.643c0-1.773-1.193-3.002-3.592-3.676
	c-2.021-0.575-3.014-1.167-3.014-1.817c0-0.35,0.057-0.698,0.207-1.074c0.549,0.275,1.207,0.413,1.98,0.413
	c1.273,0,2.331-0.415,3.18-1.239c0.875-0.824,1.322-1.946,1.322-3.345c0-1.149-0.504-2.223-1.528-3.221l1.816,0.166v-1.198H760.339
	L760.339,294.763z M464.541,294.805v12.76h1.445v-12.76H464.541z M597.098,294.805v12.76h1.445v-12.76H597.098z M614.071,294.805
	v7.185c0,3.946,1.538,5.905,4.584,5.905c2.098,0,3.691-0.863,4.79-2.561c0.1,0.799,0.279,1.629,0.579,2.478l1.404-0.289
	c-0.425-1.124-0.661-2.174-0.661-3.097v-9.622h-1.446v7.722c0,1.224-0.456,2.257-1.404,3.057c-0.874,0.698-1.858,1.032-2.932,1.032
	c-2.297,0-3.469-1.644-3.469-4.915v-6.896H614.071L614.071,294.805z M628.689,294.805v12.76h1.487v-12.76H628.689z M656.563,294.805
	v12.76h1.487v-12.76H656.563z M860.521,294.805l5.287,11.893c0.074,0.225,0.123,0.38,0.123,0.455
	c-1.098,2.922-2.709,4.605-4.832,5.079l0.33,1.156c2.448-0.574,4.392-2.501,5.864-5.822l5.616-12.76H871.3l-4.461,10.819
	l-4.748-10.819H860.521L860.521,294.805z M935.141,294.805v7.185c0,3.946,1.539,5.905,4.585,5.905c2.098,0,3.691-0.863,4.79-2.561
	c0.101,0.799,0.278,1.629,0.578,2.478l1.404-0.289c-0.425-1.124-0.619-2.174-0.619-3.097v-9.622h-1.487v7.722
	c0,1.224-0.454,2.257-1.404,3.057c-0.874,0.698-1.857,1.032-2.931,1.032c-2.298,0-3.429-1.644-3.429-4.915v-6.896h-1.485H935.141z
	 M494.603,295.713c1.524,0,2.638,0.553,3.386,1.652c0.55,0.799,0.843,1.701,0.868,2.725h-8.961c0.174-1.123,0.622-2.091,1.321-2.89
	C492.091,296.201,493.23,295.713,494.603,295.713L494.603,295.713z M551.921,295.713c1.199,0,2.265,0.415,3.139,1.239
	c0.974,0.874,1.445,2.013,1.445,3.386v2.106c0,1.198-0.431,2.215-1.28,3.014c-0.849,0.799-1.89,1.198-3.139,1.198
	c-3.146,0-4.708-1.854-4.708-5.575c0-1.574,0.398-2.883,1.197-3.882C549.375,296.201,550.473,295.713,551.921,295.713
	L551.921,295.713z M567.077,295.713c1.523,0,2.678,0.553,3.427,1.652c0.549,0.799,0.842,1.701,0.868,2.725h-8.961
	c0.175-1.123,0.623-2.091,1.321-2.89C564.605,296.201,565.703,295.713,567.077,295.713L567.077,295.713z M667.176,295.713
	c1.523,0,2.638,0.553,3.387,1.652c0.549,0.799,0.842,1.701,0.867,2.725h-8.961c0.175-1.123,0.623-2.091,1.321-2.89
	C664.664,296.201,665.803,295.713,667.176,295.713L667.176,295.713z M781.648,295.713c1.521,0,2.678,0.553,3.426,1.652
	c0.551,0.799,0.802,1.701,0.826,2.725h-8.918c0.174-1.123,0.58-2.091,1.279-2.89C779.134,296.201,780.274,295.713,781.648,295.713
	L781.648,295.713z M818.896,295.713c1.198,0,2.223,0.415,3.097,1.239c0.975,0.874,1.444,2.013,1.444,3.386v2.106
	c0,1.198-0.431,2.215-1.278,3.014c-0.85,0.799-1.892,1.198-3.14,1.198c-3.145,0-4.707-1.854-4.707-5.575
	c0-1.574,0.398-2.883,1.197-3.882S817.447,295.713,818.896,295.713L818.896,295.713z M925.231,295.713
	c1.198,0,2.265,0.415,3.14,1.239c0.973,0.874,1.444,2.013,1.444,3.386v2.106c0,1.198-0.431,2.215-1.28,3.014
	c-0.85,0.799-1.89,1.198-3.138,1.198c-3.146,0-4.709-1.854-4.709-5.575c0-1.574,0.399-2.883,1.198-3.882
	C922.686,296.201,923.783,295.713,925.231,295.713L925.231,295.713z M967.765,295.713c1.199,0,2.223,0.415,3.098,1.239
	c0.975,0.874,1.444,2.013,1.444,3.386v2.106c0,1.198-0.431,2.215-1.278,3.014c-0.85,0.799-1.892,1.198-3.14,1.198
	c-3.146,0-4.707-1.854-4.707-5.575c0-1.574,0.397-2.883,1.197-3.882C965.178,296.201,966.317,295.713,967.765,295.713
	L967.765,295.713z M704.962,295.795c1.448,0,2.627,0.521,3.551,1.57c0.949,1.023,1.404,2.292,1.404,3.84s-0.455,2.875-1.404,3.923
	c-0.924,1.049-2.104,1.569-3.551,1.569c-1.448,0-2.644-0.52-3.593-1.569c-0.923-1.049-1.404-2.375-1.404-3.923
	s0.481-2.816,1.404-3.84C702.318,296.316,703.514,295.795,704.962,295.795z M834.298,295.795c1.449,0,2.628,0.521,3.552,1.57
	c0.95,1.023,1.404,2.292,1.404,3.84s-0.454,2.875-1.404,3.923c-0.924,1.049-2.103,1.569-3.552,1.569
	c-1.448,0-2.643-0.52-3.593-1.569c-0.923-1.049-1.403-2.375-1.403-3.923s0.48-2.816,1.403-3.84
	C831.656,296.316,832.85,295.795,834.298,295.795z M983.168,295.795c1.447,0,2.628,0.521,3.551,1.57
	c0.949,1.023,1.405,2.292,1.405,3.84s-0.456,2.875-1.405,3.923c-0.923,1.049-2.104,1.569-3.551,1.569
	c-1.448,0-2.644-0.52-3.593-1.569c-0.924-1.049-1.404-2.375-1.404-3.923s0.48-2.816,1.404-3.84
	C980.525,296.316,981.72,295.795,983.168,295.795z M606.308,295.919c1.023,0,1.837,0.367,2.437,1.115
	c0.524,0.625,0.784,1.324,0.784,2.147c0,1.024-0.326,1.821-0.95,2.395c-0.625,0.575-1.373,0.868-2.271,0.868
	c-0.799,0-1.523-0.277-2.147-0.826c-0.675-0.6-0.992-1.396-0.992-2.395c0-0.899,0.277-1.664,0.826-2.313
	C604.544,296.236,605.309,295.919,606.308,295.919z M760.503,295.919c1.024,0,1.838,0.367,2.438,1.115
	c0.524,0.625,0.783,1.324,0.783,2.147c0,1.024-0.324,1.821-0.949,2.395c-0.623,0.575-1.373,0.868-2.271,0.868
	c-0.799,0-1.521-0.277-2.146-0.826c-0.676-0.6-0.991-1.396-0.991-2.395c0-0.899,0.276-1.664,0.826-2.313
	C758.741,296.236,759.505,295.919,760.503,295.919z M533.379,300.875v2.561c0,0.2-0.082,0.427-0.206,0.702
	c-0.799,1.673-2.157,2.52-4.13,2.52c-0.749,0-1.4-0.195-1.9-0.62c-0.499-0.449-0.743-1.117-0.743-1.94
	C526.401,301.948,528.735,300.875,533.379,300.875z M730.029,300.875v2.561c0,0.2-0.082,0.427-0.207,0.702
	c-0.8,1.673-2.158,2.52-4.13,2.52c-0.749,0-1.399-0.195-1.899-0.62c-0.5-0.449-0.743-1.117-0.743-1.94
	C723.049,301.948,725.383,300.875,730.029,300.875L730.029,300.875z M808.449,300.875v2.561c0,0.2-0.082,0.427-0.207,0.702
	c-0.8,1.673-2.157,2.52-4.13,2.52c-0.749,0-1.399-0.195-1.899-0.62c-0.5-0.449-0.743-1.117-0.743-1.94
	c0-2.148,2.333-3.222,6.978-3.222H808.449z M914.825,300.875v2.561c0,0.2-0.081,0.427-0.207,0.702
	c-0.798,1.673-2.198,2.52-4.171,2.52c-0.748,0-1.359-0.195-1.857-0.62c-0.499-0.449-0.744-1.117-0.744-1.94
	C907.845,301.948,910.18,300.875,914.825,300.875z M957.317,300.875v2.561c0,0.2-0.081,0.427-0.205,0.702
	c-0.8,1.673-2.158,2.52-4.13,2.52c-0.749,0-1.4-0.195-1.9-0.62c-0.499-0.449-0.743-1.117-0.743-1.94
	C950.338,301.948,952.672,300.875,957.317,300.875z"/>
</svg>
