<?xml version="1.0" encoding="UTF-8" standalone="no"?>
<!-- Created with Inkscape (http://www.inkscape.org/) -->

<svg
   xmlns:dc="http://purl.org/dc/elements/1.1/"
   xmlns:cc="http://creativecommons.org/ns#"
   xmlns:rdf="http://www.w3.org/1999/02/22-rdf-syntax-ns#"
   xmlns:svg="http://www.w3.org/2000/svg"
   xmlns="http://www.w3.org/2000/svg"
   xmlns:sodipodi="http://sodipodi.sourceforge.net/DTD/sodipodi-0.dtd"
   xmlns:inkscape="http://www.inkscape.org/namespaces/inkscape"
   width="396.61172"
   height="354.33072"
   id="svg2"
   version="1.1"
   inkscape:version="0.91 r13725"
   sodipodi:docname="logo.svg"
   inkscape:export-filename="/home/sam/Documentos/mono/SSEG/logo.png"
   inkscape:export-xdpi="90"
   inkscape:export-ydpi="90">
  <defs
     id="defs4" />
  <sodipodi:namedview
     id="base"
     pagecolor="#ffffff"
     bordercolor="#666666"
     borderopacity="1.0"
     inkscape:pageopacity="0.0"
     inkscape:pageshadow="2"
     inkscape:zoom="0.49497475"
     inkscape:cx="180.52311"
     inkscape:cy="115.71689"
     inkscape:document-units="px"
     inkscape:current-layer="layer1"
     showgrid="false"
     showguides="true"
     inkscape:guide-bbox="true"
     fit-margin-top="0"
     fit-margin-left="0"
     fit-margin-right="0"
     fit-margin-bottom="0"
     inkscape:window-width="1366"
     inkscape:window-height="649"
     inkscape:window-x="-2"
     inkscape:window-y="24"
     inkscape:window-maximized="1" />
  <metadata
     id="metadata7">
    <rdf:RDF>
      <cc:Work
         rdf:about="">
        <dc:format>image/svg+xml</dc:format>
        <dc:type
           rdf:resource="http://purl.org/dc/dcmitype/StillImage" />
        <dc:title></dc:title>
      </cc:Work>
    </rdf:RDF>
  </metadata>
  <g
     inkscape:label="Capa 1"
     inkscape:groupmode="layer"
     id="layer1"
     transform="translate(-311.76181,-269.9926)">
    <path
       style="fill:#e6e6e6;fill-opacity:1;stroke:none"
       d="m 573.61888,468.48299 71.02351,-0.62578 63.04507,-63.10767 0,-70.33517 z"
       id="path3840"
       inkscape:connector-curvature="0" />
    <path
       style="fill:#f2f2f2;stroke:none"
       d="m 574.30267,269.9926 70.17695,0 63.81481,63.81482 0.0791,70.25606 z"
       id="path3818"
       inkscape:connector-curvature="0" />
    <path
       style="fill:#ffffff;fill-opacity:1;stroke:none"
       d="m 579.44469,335.37804 -36.88842,0.84476 1.78343,-35.94976 30.28041,-30.28044 69.85951,0 z"
       id="path3838"
       inkscape:connector-curvature="0"
       sodipodi:nodetypes="cccccc" />
    <path
       style="fill:#e6e6e6;fill-opacity:1;stroke:none"
       d="m 377.13701,269.9926 69.76594,0 -134.47535,134.66308 0.0969,-70.05056 64.61251,-64.61252 z"
       id="path3796"
       inkscape:connector-curvature="0" />
    <path
       style="fill:#e6e6e6;fill-opacity:1;stroke:none"
       d="m 439.61912,404.9936 37.70191,-3.53556 -2.5969,38.64056 -27.75861,27.75861 -70.21001,0 z"
       id="path3836"
       inkscape:connector-curvature="0"
       sodipodi:nodetypes="cccccc" />
    <path
       style="fill:#f2f2f2;fill-opacity:1;stroke:none"
       d="m 312.57837,334.55123 134.38715,133.30598 -70.21001,0 -64.17714,-63.5715 z"
       id="path3826"
       inkscape:connector-curvature="0" />
    <path
       style="fill:#ffffff;fill-opacity:1;stroke:none"
       d="m 376.75551,270.24292 70.21001,-0.12518 197.73945,197.73945 -71.71184,0 z"
       id="path3788"
       inkscape:connector-curvature="0" />
    <path
       style="font-style:normal;font-variant:normal;font-weight:normal;font-stretch:normal;font-size:199.21417236px;line-height:125%;font-family:'Text Me One';-inkscape-font-specification:'Text Me One';text-align:start;letter-spacing:0px;word-spacing:0px;writing-mode:lr-tb;text-anchor:start;fill:#f2f2f2;fill-opacity:1;stroke:none"
       d="m 662.08723,490.20995 c -3.28809,1.3e-4 -6.69538,0.29027 -10.2363,0.92245 -3.41454,0.50598 -7.40955,1.83766 -11.96218,3.98739 -4.42624,2.02355 -8.33941,4.68688 -11.75389,7.9748 -3.28806,3.16169 -6.13738,7.76675 -8.54017,13.83685 -2.27634,6.07033 -3.42203,13.10066 -3.42202,21.06774 l 0,38.50514 c -1e-5,7.71429 1.14568,14.61071 3.42202,20.6809 2.27632,5.94378 5.07358,10.54884 8.36163,13.83686 3.41448,3.28804 7.96746,6.32336 13.65832,9.10554 5.81726,2.78219 12.76575,4.19569 20.85943,4.19569 7.71419,0 15.16856,-1.59949 22.37702,-4.76107 4.42613,-1.89693 8.28722,-4.42636 11.57537,-7.58795 3.28793,-3.16156 6.05542,-7.63271 8.33183,-13.45002 2.40272,-5.94373 3.60047,-12.78808 3.60058,-20.50236 l 0,-12.31926 c -1.1e-4,-5.43785 -2.52956,-8.15327 -7.58797,-8.15333 l -33.00014,0 c -1.13823,6e-5 -2.06817,0.37203 -2.82689,1.13075 -0.63237,0.75885 -0.95227,1.63671 -0.95221,2.64835 l 0,1.72588 c -6e-5,2.52932 1.24978,3.77916 3.7791,3.7791 l 31.30404,0 0,11.00998 c -1.1e-4,6.19672 -0.95982,11.62756 -2.85667,16.30665 -1.77054,4.67916 -3.98008,8.35428 -6.63573,11.00998 -2.65581,2.52928 -5.74321,4.6049 -9.28408,6.2489 -3.54104,1.51757 -6.71026,2.52934 -9.49238,3.03518 -2.78225,0.37941 -5.54974,0.56539 -8.33187,0.56538 -2.78224,1e-5 -5.57949,-0.23806 -8.36163,-0.74392 -2.78222,-0.50583 -6.00354,-1.59944 -9.67092,-3.24347 -3.541,-1.644 -6.62839,-3.77171 -9.28409,-6.42745 -2.65574,-2.78216 -4.94711,-6.64327 -6.84403,-11.57535 -1.89696,-4.93202 -2.82691,-10.63068 -2.82689,-17.08033 l 0,-37.1661 c -2e-5,-6.44951 0.87785,-12.14818 2.64835,-17.08034 1.89692,-4.93195 4.15854,-8.74098 6.81428,-11.39681 2.65569,-2.78207 5.77285,-4.99159 9.31384,-6.63574 3.54093,-1.64389 6.71015,-2.70774 9.49238,-3.21372 2.9086,-0.50573 6.50188,-0.77354 10.80168,-0.77367 4.42614,1.3e-4 9.16511,1.09372 14.22369,3.24348 3.41444,1.39121 6.44976,3.14694 9.10557,5.29669 2.65565,2.14998 4.99908,5.26713 7.02255,9.31384 2.02331,4.04692 3.35501,8.70404 3.9874,14.0154 0.25282,2.27641 1.50266,3.4221 3.77912,3.42201 l 1.72588,0 c 2.52913,9e-5 3.77896,-1.38366 3.77907,-4.16593 -0.63239,-6.57598 -2.20213,-12.32671 -4.73131,-17.25888 -2.52934,-5.05841 -5.4605,-9.00134 -8.74843,-11.78365 -3.28814,-2.90852 -7.01535,-5.22221 -11.18855,-6.99282 -4.04688,-1.89681 -7.77406,-3.12433 -11.1885,-3.63031 -3.41456,-0.63218 -6.82186,-0.92232 -10.2363,-0.92245 z m -306.01772,0.74391 c -11.50818,1.4e-4 -20.61414,3.03546 -27.31664,9.10555 -6.70256,6.07034 -10.05776,13.20483 -10.05775,21.42481 -10e-6,8.09373 2.02353,14.80415 6.07036,20.11551 4.17325,5.18506 10.80185,9.81988 19.90722,13.86662 11.88747,4.80566 20.62145,8.53284 26.18588,11.18851 4.29967,2.14993 8.26492,4.73144 11.93243,7.7665 4.55258,3.79393 6.84394,9.22477 6.84404,16.30666 -10e-5,6.95548 -2.84943,12.78806 -8.54017,17.46717 -5.56444,4.55268 -12.78077,6.81429 -21.63311,6.81428 -8.72599,1e-5 -16.73834,-1.9417 -24.07316,-5.86206 -3.79391,-2.02339 -6.96314,-5.05872 -9.49238,-9.10555 -2.52927,-4.17325 -3.91302,-9.04613 -4.16593,-14.61053 -0.25295,-2.40276 -1.53254,-3.60051 -3.80886,-3.60056 l -1.69613,0 c -2.52927,5e-5 -3.80886,1.33171 -3.80885,3.98739 0.25291,6.82903 1.8524,12.86992 4.76107,18.18134 3.03509,5.18499 6.89618,9.23208 11.57534,12.14073 8.85237,5.43791 18.24847,8.18308 28.2391,8.18308 13.405,0 23.73848,-3.16923 30.94695,-9.49238 7.33475,-6.4496 10.98011,-14.17181 10.98021,-23.1507 -10e-5,-8.97883 -2.02364,-15.87525 -6.07036,-20.68089 -5.31153,-6.32309 -15.93515,-12.6318 -31.86941,-18.95501 -13.40512,-5.18491 -22.56315,-10.24376 -27.49518,-15.17591 -3.54098,-3.66733 -5.32646,-8.54021 -5.32644,-14.61053 -2e-5,-6.19658 2.5294,-11.38935 7.58795,-15.56274 5.05849,-4.17316 12.1409,-6.24878 21.24628,-6.24891 8.47295,1.3e-4 15.77111,2.20965 21.8414,6.63574 6.07014,4.29986 9.29145,11.24835 9.67092,20.85944 0.12638,1.01179 0.55043,1.88966 1.30929,2.64834 0.75869,0.63241 1.58448,0.9523 2.46981,0.95222 l 1.90443,0 c 1.0116,8e-5 1.88948,-0.37189 2.64834,-1.13076 0.75869,-0.88515 1.13066,-1.84484 1.13076,-2.85664 -0.50595,-12.14034 -4.73903,-21.2463 -12.7061,-27.31663 -7.84079,-6.19657 -17.55678,-9.28395 -29.19131,-9.28409 z m 105.57671,0 c -11.50818,1.4e-4 -20.61414,3.03546 -27.31663,9.10555 -6.70256,6.07034 -10.05778,13.20483 -10.05776,21.42481 -2e-5,8.09373 2.02352,14.80415 6.07036,20.11551 4.17325,5.18506 10.8316,9.81988 19.93697,13.86662 11.88747,4.80566 20.5917,8.53284 26.15613,11.18851 4.29968,2.14993 8.29468,4.73144 11.96219,7.7665 4.55258,3.79393 6.81419,9.22477 6.81428,16.30666 -9e-5,6.95548 -2.81966,12.78806 -8.51042,17.46717 -5.56444,4.55268 -12.78075,6.81429 -21.6331,6.81428 -8.726,1e-5 -16.7681,-1.9417 -24.10291,-5.86206 -3.79392,-2.02339 -6.96315,-5.05872 -9.49239,-9.10555 -2.52928,-4.17325 -3.91303,-9.04613 -4.16593,-14.61053 -0.25295,-2.40276 -1.50279,-3.60051 -3.7791,-3.60056 l -1.72589,0 c -2.52927,5e-5 -3.77911,1.33171 -3.7791,3.98739 0.25292,6.82903 1.82265,12.86992 4.73131,18.18134 3.0351,5.18499 6.89621,9.23208 11.57536,12.14073 8.85237,5.43791 18.27822,8.18308 28.26884,8.18308 13.40501,0 23.70873,-3.16923 30.9172,-9.49238 7.33476,-6.4496 11.00987,-14.17181 11.00997,-23.1507 -10e-5,-8.97883 -2.02365,-15.87525 -6.07037,-20.68089 -5.31153,-6.32309 -15.93514,-12.6318 -31.8694,-18.95501 -13.40512,-5.18491 -22.59292,-10.24376 -27.52493,-15.17591 -3.54099,-3.66733 -5.29671,-8.54021 -5.29669,-14.61053 -2e-5,-6.19658 2.5294,-11.38935 7.58795,-15.56274 5.05849,-4.17316 12.14089,-6.24878 21.24627,-6.24891 8.47297,1.3e-4 15.74135,2.20965 21.81165,6.63574 6.07014,4.29986 9.29145,11.24835 9.67092,20.85944 0.12638,1.01179 0.58019,1.88966 1.33906,2.64834 0.75868,0.63241 1.58448,0.9523 2.4698,0.95222 l 1.87467,0 c 1.0116,8e-5 1.91922,-0.37189 2.6781,-1.13076 0.75867,-0.88515 1.13066,-1.84484 1.13076,-2.85664 -0.50595,-12.14034 -4.73903,-21.2463 -12.70611,-27.31663 -7.84078,-6.19657 -17.58653,-9.28395 -29.22106,-9.28409 z m 71.44579,0.38684 c -2.7822,1.3e-4 -4.72391,0.63993 -5.86206,1.90443 -1.13818,1.13829 -1.7259,2.9461 -1.72589,5.47523 l 0,117.8067 c -10e-6,2.40281 0.4538,4.29244 1.33905,5.68353 1.01169,1.26462 3.03524,1.90443 6.07036,1.90443 l 66.38716,0 c 1.01162,0 1.88948,-0.37199 2.64835,-1.13076 0.75869,-0.75878 1.13066,-1.63664 1.13075,-2.64834 l 0,-1.72589 c -9e-5,-1.13816 -0.37206,-2.01602 -1.13075,-2.64835 -0.75887,-0.75877 -1.63673,-1.13074 -2.64835,-1.13075 l -64.30419,0 0,-114.20614 64.30419,0 c 1.01162,1.1e-4 1.88948,-0.31978 2.64835,-0.95222 0.75869,-0.75865 1.13066,-1.68859 1.13075,-2.82688 l 0,-1.7259 c -9e-5,-1.01156 -0.37206,-1.88943 -1.13075,-2.64834 -0.75887,-0.75865 -1.63673,-1.13062 -2.64835,-1.13075 l -66.20862,0 z m 13.27148,59.18604 c -1.13819,8e-5 -2.06814,0.37205 -2.82688,1.13075 -0.63235,0.75885 -0.95224,1.63671 -0.95221,2.64835 l 0,1.72589 c -3e-5,2.52932 1.24981,3.77915 3.77909,3.7791 l 40.61788,0 c 2.52918,5e-5 3.77902,-1.24978 3.7791,-3.7791 l 0,-1.72589 c -8e-5,-1.01164 -0.37205,-1.8895 -1.13076,-2.64835 -0.63238,-0.7587 -1.51025,-1.13067 -2.64834,-1.13075 l -40.61788,0 z"
       id="path4091"
       inkscape:connector-curvature="0" />
    <path
       style="font-style:normal;font-variant:normal;font-weight:bold;font-stretch:normal;font-size:28.34422684px;line-height:125%;font-family:'TH Sarabun OFL';-inkscape-font-specification:'TH Sarabun OFL Bold';text-align:start;letter-spacing:0px;word-spacing:0px;writing-mode:lr-tb;text-anchor:start;fill:#ffffff;fill-opacity:1;stroke:none"
       d="m 388.17697,470.6598 0,6.18939 c -0.79171,-1.29549 -1.95212,-1.93417 -3.48153,-1.93418 -1.27752,1e-5 -2.29747,0.42764 -3.03518,1.30929 -0.73772,0.88168 -1.101,2.01302 -1.101,3.36251 0,1.47545 0.38681,2.68291 1.16051,3.60056 0.7737,0.89966 1.81095,1.33905 3.12445,1.33905 1.43945,0 2.60609,-0.63315 3.45178,-1.87467 0,0.61177 -0.006,1.16879 0.0298,1.63662 l 0.98197,0 c -0.054,-0.46783 -0.0893,-1.2359 -0.0893,-2.26151 l 0,-11.36706 -1.04149,0 z m 192.3472,0 0,6.18939 c -0.79171,-1.29549 -1.95212,-1.93417 -3.48154,-1.93418 -1.27751,1e-5 -2.2677,0.42764 -3.00542,1.30929 -0.73773,0.88168 -1.13076,2.01302 -1.13076,3.36251 0,1.47545 0.38681,2.68291 1.16051,3.60056 0.77371,0.89966 1.84071,1.33905 3.15422,1.33905 1.43945,0 2.57632,-0.63315 3.42201,-1.87467 0,0.61177 0.0235,1.16879 0.0595,1.63662 l 0.95221,0 c -0.054,-0.46783 -0.0595,-1.2359 -0.0595,-2.26151 l 0,-11.36706 -1.07124,0 z m 76.65321,0 0,6.18939 c -0.79171,-1.29549 -1.95211,-1.93417 -3.48153,-1.93418 -1.27752,1e-5 -2.29746,0.42764 -3.03518,1.30929 -0.73772,0.88168 -1.101,2.01302 -1.101,3.36251 0,1.47545 0.3868,2.68291 1.16051,3.60056 0.7737,0.89966 1.81095,1.33905 3.12445,1.33905 1.43945,0 2.60609,-0.63315 3.45178,-1.87467 0,0.61177 -0.006,1.16879 0.0298,1.63662 l 0.98198,0 c -0.054,-0.46783 -0.0893,-1.2359 -0.0893,-2.26151 l 0,-11.36706 -1.04149,0 z m 30.61964,0 0,6.18939 c -0.79175,-1.29549 -1.95215,-1.93417 -3.48152,-1.93418 -1.27752,1e-5 -2.26776,0.42764 -3.00545,1.30929 -0.73772,0.88168 -1.101,2.01302 -1.101,3.36251 0,1.47545 0.3868,2.68291 1.16051,3.60056 0.77369,0.89966 1.81096,1.33905 3.12443,1.33905 1.43946,0 2.57637,-0.63315 3.42203,-1.87467 0,0.61177 0.0236,1.16879 0.0595,1.63662 l 0.95219,0 c -0.054,-0.46783 -0.0595,-1.2359 -0.0595,-2.26151 l 0,-11.36706 -1.07124,0 z m -371.63122,0.53562 c -1.18755,2e-5 -2.14868,0.32247 -2.8864,0.95222 -0.73773,0.62977 -1.101,1.39715 -1.101,2.35077 0,1.6374 1.20747,2.85662 3.60056,3.63032 1.02561,0.32389 1.74039,0.71068 2.17224,1.16051 0.44982,0.43184 0.6844,1.00617 0.6844,1.72589 0,0.7917 -0.28716,1.41862 -0.86294,1.90443 -0.5758,0.46782 -1.37293,0.71416 -2.38053,0.71416 -1.25954,0 -2.33206,-0.34599 -3.21373,-1.01173 l -0.41659,0.92246 c 0.95363,0.64775 2.10782,0.98197 3.51129,0.98197 1.42145,0 2.54103,-0.38681 3.33275,-1.16051 0.70172,-0.64776 1.04147,-1.46842 1.04148,-2.44005 -1e-5,-1.00761 -0.29271,-1.78675 -0.92246,-2.38054 -0.53981,-0.50379 -1.43658,-0.99647 -2.6781,-1.42832 -1.90728,-0.64774 -2.85664,-1.55005 -2.85664,-2.73761 0,-0.57577 0.19305,-1.08575 0.62489,-1.51759 0.53979,-0.52179 1.31341,-0.77366 2.32102,-0.77368 0.89966,2e-5 1.75561,0.21106 2.52932,0.62489 0.14394,-0.25188 0.2844,-0.55704 0.44635,-0.86294 -0.75572,-0.44981 -1.74038,-0.65463 -2.94591,-0.65465 z m 95.51895,0 c -1.18756,2e-5 -2.14868,0.32247 -2.8864,0.95222 -0.73772,0.62977 -1.101,1.39715 -1.101,2.35077 0,1.6374 1.20747,2.85662 3.60056,3.63032 1.02561,0.32389 1.74039,0.71068 2.17224,1.16051 0.44981,0.43184 0.68439,1.00617 0.6844,1.72589 -10e-6,0.7917 -0.28717,1.41862 -0.86294,1.90443 -0.57579,0.46782 -1.37292,0.71416 -2.38054,0.71416 -1.25952,0 -2.33205,-0.34599 -3.21372,-1.01173 l -0.44635,0.92246 c 0.95364,0.64775 2.13757,0.98197 3.54105,0.98197 1.42145,0 2.54104,-0.38681 3.33274,-1.16051 0.70173,-0.64776 1.04148,-1.46842 1.04149,-2.44005 -10e-6,-1.00761 -0.2927,-1.78675 -0.92246,-2.38054 -0.5398,-0.50379 -1.43658,-0.99647 -2.6781,-1.42832 -1.90728,-0.64774 -2.85664,-1.55005 -2.85664,-2.73761 0,-0.57577 0.19305,-1.08575 0.62489,-1.51759 0.53979,-0.52179 1.3134,-0.77366 2.32102,-0.77368 0.89966,2e-5 1.7556,0.21106 2.52932,0.62489 0.14394,-0.25188 0.2844,-0.55704 0.44635,-0.86294 -0.75573,-0.44981 -1.74038,-0.65463 -2.94591,-0.65465 z m 216.95597,0.0893 c -1.8353,1e-5 -3.28288,0.64492 -4.34447,1.90443 -1.02561,1.18756 -1.54735,2.73478 -1.54735,4.64204 0,1.99726 0.49821,3.58529 1.48783,4.79083 0.98963,1.18754 2.32026,1.7854 3.95764,1.7854 0.35986,0 1.05112,-0.0879 2.11272,-0.26781 l 1.60687,-0.29757 c 0.2339,0 0.42142,0.0706 0.56537,0.17855 l 0,-6.15964 -4.28496,0 0,0.86294 3.24348,0 0,4.16594 c -0.93565,0.44984 -1.96113,0.65465 -3.09469,0.65465 -1.43947,0 -2.54105,-0.50997 -3.33275,-1.51759 -0.77372,-1.02561 -1.16051,-2.40261 -1.16051,-4.16594 0,-1.65537 0.43939,-3.01506 1.33904,-4.07667 0.91766,-1.06158 2.04278,-1.60685 3.39227,-1.60685 1.0436,0 2.10436,0.21105 3.18396,0.62488 l 0.32732,-0.86294 c -0.98962,-0.43182 -2.13827,-0.65464 -3.45177,-0.65465 z m -105.66598,0.14879 0,12.85489 6.99282,0 0,-0.89271 -5.95133,0 0,-5.44547 5.29669,0 0,-0.8927 -5.29669,0 0,-4.73131 5.95133,0 0,-0.8927 -6.99282,0 z m -200.58979,0.0298 c -0.25191,1e-5 -0.43321,0.0761 -0.59514,0.23805 -0.14394,0.16195 -0.23805,0.373 -0.23805,0.6249 0,0.25191 0.0941,0.46295 0.23805,0.62489 0.16193,0.14392 0.34323,0.2083 0.59514,0.20829 0.2519,10e-6 0.46294,-0.0643 0.62489,-0.20829 0.16196,-0.16194 0.23805,-0.37298 0.23805,-0.62489 0,-0.2519 -0.0761,-0.46295 -0.23805,-0.6249 -0.16195,-0.16196 -0.37299,-0.23804 -0.62489,-0.23805 z m 95.51894,0 c -0.25189,1e-5 -0.43319,0.0761 -0.59513,0.23805 -0.14393,0.16195 -0.23805,0.373 -0.23805,0.6249 0,0.25191 0.0941,0.46295 0.23805,0.62489 0.16194,0.14392 0.34324,0.2083 0.59513,0.20829 0.25191,10e-6 0.46295,-0.0643 0.62489,-0.20829 0.16198,-0.16194 0.23806,-0.37298 0.23806,-0.62489 0,-0.2519 -0.0761,-0.46295 -0.23806,-0.6249 -0.16194,-0.16196 -0.37298,-0.23804 -0.62489,-0.23805 z m 22.79362,0 c -0.2519,1e-5 -0.46295,0.0761 -0.62489,0.23805 -0.14392,0.16195 -0.2083,0.373 -0.20829,0.6249 -10e-6,0.25191 0.0643,0.46295 0.20829,0.62489 0.16194,0.14392 0.37299,0.2083 0.62489,0.20829 0.2519,10e-6 0.46296,-0.0643 0.6249,-0.20829 0.16197,-0.16194 0.23805,-0.37298 0.23805,-0.62489 0,-0.2519 -0.0761,-0.46295 -0.23805,-0.6249 -0.16194,-0.16196 -0.373,-0.23804 -0.6249,-0.23805 z m 20.08577,0 c -0.25191,1e-5 -0.46296,0.0761 -0.6249,0.23805 -0.14393,0.16195 -0.23805,0.373 -0.23805,0.6249 0,0.25191 0.0941,0.46295 0.23805,0.62489 0.16194,0.14392 0.37299,0.2083 0.6249,0.20829 0.2519,10e-6 0.43319,-0.0643 0.59513,-0.20829 0.16197,-0.16194 0.26781,-0.37298 0.26781,-0.62489 0,-0.2519 -0.10588,-0.46295 -0.26781,-0.6249 -0.16194,-0.16196 -0.34323,-0.23804 -0.59513,-0.23805 z m -125.7815,0.41659 -1.07124,0.50587 0,2.70786 -1.81516,0 0,0.83318 1.81516,0 0,5.65377 c 0,0.8097 0.20551,1.48366 0.56538,2.02346 0.41383,0.61176 0.9937,0.92245 1.7854,0.92245 0.59377,0 1.06845,-0.0761 1.42832,-0.23805 l -0.0893,-0.83319 c -0.2699,0.10796 -0.69199,0.14879 -1.24977,0.14879 -0.91766,0 -1.36882,-0.68574 -1.36881,-2.05321 l 0,-5.62402 2.94591,0 0,-0.83318 -2.94591,0 0,-3.21373 z m 151.402,0 -1.07124,0.50587 0,2.70786 -1.81516,0 0,0.83318 1.81516,0 0,5.65377 c -10e-6,0.8097 0.17576,1.48366 0.53562,2.02346 0.41384,0.61176 1.02345,0.92245 1.81516,0.92245 0.59377,0 1.06845,-0.0761 1.42832,-0.23805 l -0.0893,-0.83319 c -0.26991,0.10796 -0.69201,0.14879 -1.24979,0.14879 -0.91765,0 -1.3688,-0.68574 -1.3688,-2.05321 l 0,-5.62402 2.91615,0 0,-0.83318 -2.91615,0 0,-3.21373 z m -157.88896,3.03519 c -0.95364,10e-6 -1.69196,0.24012 -2.23175,0.74391 -0.5218,0.50383 -0.80343,1.11344 -0.80343,1.81516 0,1.15157 0.83242,1.99576 2.46981,2.49956 1.42145,0.43184 2.11272,1.08228 2.11272,1.96395 0,1.13356 -0.75009,1.69612 -2.26151,1.69612 -0.64776,0 -1.39784,-0.24633 -2.26151,-0.71416 l -0.38683,0.86294 c 0.82768,0.48581 1.68916,0.74392 2.58883,0.74392 1.04361,0 1.8345,-0.26987 2.41029,-0.77367 0.59377,-0.5038 0.8927,-1.13072 0.8927,-1.90443 0,-1.24152 -0.80268,-2.15006 -2.44005,-2.70786 -1.40347,-0.48581 -2.11273,-1.06566 -2.11273,-1.7854 0,-0.44982 0.15223,-0.82486 0.47611,-1.13075 0.32387,-0.30588 0.79303,-0.4761 1.36881,-0.47611 0.80968,1e-5 1.48365,0.22282 2.02346,0.65465 l 0.41659,-0.86294 c -0.55779,-0.41383 -1.30788,-0.62488 -2.26151,-0.62489 z m 15.17591,0 c -1.3315,10e-6 -2.43931,0.45117 -3.30299,1.3688 -0.86367,0.91766 -1.27954,2.14865 -1.27954,3.66008 0,1.33149 0.41587,2.40955 1.27954,3.27323 0.86368,0.86367 2.01854,1.30929 3.42201,1.30929 1.22353,0 2.34865,-0.2228 3.39227,-0.65464 l -0.0893,-0.8927 c -1.06161,0.41384 -2.13413,0.62489 -3.21372,0.62489 -1.09759,0 -1.97637,-0.34598 -2.67811,-1.01173 -0.68373,-0.68374 -1.065,-1.6331 -1.10099,-2.85664 l 7.52844,0 c -0.054,-3.22077 -1.38463,-4.82057 -3.95764,-4.82058 z m 10.26606,0 c -1.3495,10e-6 -2.39297,0.62138 -3.0947,1.84491 -0.018,-0.71971 -0.0824,-1.28852 -0.2083,-1.66637 l -0.98197,0 c 0.12599,1.02561 0.17854,1.80545 0.17854,2.29126 l 0,6.90355 1.04149,0 0,-5.5645 c 0,-0.71972 0.28715,-1.38192 0.86294,-1.99369 0.57578,-0.62977 1.24421,-0.95221 1.96394,-0.95222 1.54741,10e-6 2.32101,0.98466 2.32102,2.94591 l 0,5.5645 1.04148,0 0,-5.83231 c 0,-0.68374 0.25187,-1.30511 0.77368,-1.84491 0.53978,-0.55778 1.17293,-0.83318 1.87467,-0.83319 0.80969,10e-6 1.43105,0.32245 1.84491,0.95222 0.43182,0.61177 0.62488,1.4262 0.62489,2.4698 l 0,5.08839 1.07125,0 0,-5.11815 c -2e-5,-1.31349 -0.28718,-2.33898 -0.86295,-3.0947 -0.57579,-0.7737 -1.37293,-1.16049 -2.38053,-1.1605 -1.47546,10e-6 -2.58327,0.68573 -3.303,2.05321 -0.61177,-1.36748 -1.52585,-2.0532 -2.76736,-2.05321 z m 15.11639,0 c -1.07959,10e-6 -2.11684,0.15223 -3.12445,0.4761 l 0.14878,0.98198 c 1.3135,-0.41384 2.28639,-0.62489 2.91616,-0.6249 0.98961,1e-5 1.66911,0.35152 2.08296,1.07124 0.26989,0.44984 0.4166,0.98335 0.4166,1.57711 l 0,0.14878 -0.17854,0 c -3.97649,0 -5.95134,1.16665 -5.95134,3.45177 0,0.79172 0.28716,1.39509 0.86295,1.84492 0.57577,0.44983 1.26151,0.6844 2.05321,0.6844 1.34948,0 2.44554,-0.52174 3.27323,-1.54734 l 0.35708,1.48783 0.95221,-0.17854 c -0.21592,-0.73772 -0.32733,-1.50579 -0.32732,-2.26151 l 0,-3.27323 c -10e-6,-2.55503 -1.16041,-3.8386 -3.48153,-3.83861 z m 26.87028,0 c -1.33149,10e-6 -2.43932,0.45117 -3.30299,1.3688 -0.86367,0.91766 -1.30929,2.14865 -1.30929,3.66008 0,1.33149 0.44562,2.40955 1.30929,3.27323 0.86367,0.86367 1.9888,1.30929 3.39227,1.30929 1.22352,0 2.37839,-0.2228 3.42201,-0.65464 l -0.0893,-0.8927 c -1.0616,0.41384 -2.13414,0.62489 -3.21372,0.62489 -1.09759,0 -2.00613,-0.34598 -2.70786,-1.01173 -0.68374,-0.68374 -1.03525,-1.6331 -1.07124,-2.85664 l 7.49868,0 c -0.054,-3.22077 -1.35486,-4.82057 -3.92788,-4.82058 z m 52.22298,0 c -1.34949,10e-6 -2.39296,0.62138 -3.0947,1.84491 -0.018,-0.71971 -0.0823,-1.28852 -0.20829,-1.66637 l -1.01173,0 c 0.12599,1.02561 0.2083,1.80545 0.2083,2.29126 l 0,6.90355 1.04148,0 0,-5.5645 c -10e-6,-0.71972 0.28716,-1.38192 0.86295,-1.99369 0.57577,-0.62977 1.21445,-0.95221 1.93418,-0.95222 1.54741,10e-6 2.32101,0.98466 2.32102,2.94591 l 0,5.5645 1.07125,0 0,-5.83231 c -2e-5,-0.68374 0.25185,-1.30511 0.77366,-1.84491 0.53979,-0.55778 1.17293,-0.83318 1.87468,-0.83319 0.80967,10e-6 1.40131,0.32245 1.81515,0.95222 0.43184,0.61177 0.65463,1.4262 0.65465,2.4698 l 0,5.08839 1.04149,0 0,-5.11815 c -1e-5,-1.31349 -0.28718,-2.33898 -0.86295,-3.0947 -0.5758,-0.7737 -1.34316,-1.16049 -2.35077,-1.1605 -1.47545,10e-6 -2.58328,0.68573 -3.30299,2.05321 -0.61179,-1.36748 -1.52586,-2.0532 -2.76738,-2.05321 z m 19.87747,0 c -1.3315,10e-6 -2.43933,0.45117 -3.303,1.3688 -0.86367,0.91766 -1.27954,2.14865 -1.27954,3.66008 0,1.33149 0.41587,2.40955 1.27954,3.27323 0.86367,0.86367 2.01855,1.30929 3.42202,1.30929 1.22353,0 2.34866,-0.2228 3.39226,-0.65464 l -0.0893,-0.8927 c -1.06161,0.41384 -2.13415,0.62489 -3.21373,0.62489 -1.09759,0 -1.97638,-0.34598 -2.6781,-1.01173 -0.68374,-0.68374 -1.065,-1.6331 -1.101,-2.85664 l 7.52844,0 c -0.054,-3.22077 -1.38462,-4.82057 -3.95763,-4.82058 z m 10.29581,0 c -1.36749,10e-6 -2.42273,0.62138 -3.12445,1.84491 -0.018,-0.71971 -0.0823,-1.28852 -0.2083,-1.66637 l -0.98197,0 c 0.12598,1.02561 0.17854,1.80545 0.17854,2.29126 l 0,6.90355 1.04148,0 0,-5.5645 c 0,-0.71972 0.28716,-1.38192 0.86295,-1.99369 0.59377,-0.62977 1.25597,-0.95221 1.9937,-0.95222 1.83529,10e-6 2.76736,1.10782 2.76736,3.30299 l 0,5.20742 1.04149,0 0,-5.20742 c -1e-5,-2.77094 -1.17772,-4.16592 -3.5708,-4.16593 z m 16.81252,0 c -1.38548,10e-6 -2.51682,0.46293 -3.3625,1.39856 -0.84568,0.91766 -1.24978,2.04278 -1.24978,3.39226 0,1.34949 0.4041,2.51613 1.24978,3.45178 0.84568,0.93564 1.97702,1.39855 3.3625,1.39856 1.38547,-10e-6 2.48706,-0.46292 3.33275,-1.39856 0.84567,-0.93565 1.27953,-2.10229 1.27954,-3.45178 -10e-6,-1.34948 -0.43387,-2.4746 -1.27954,-3.39226 -0.84569,-0.93563 -1.94728,-1.39855 -3.33275,-1.39856 z m 15.62226,0 c -1.07959,10e-6 -2.11684,0.15223 -3.12445,0.4761 l 0.11903,0.98198 c 1.3135,-0.41384 2.28639,-0.62489 2.91615,-0.6249 0.98962,1e-5 1.69888,0.35152 2.11272,1.07124 0.26989,0.44984 0.4166,0.98335 0.4166,1.57711 l 0,0.14878 -0.17854,0 c -3.97649,0 -5.95134,1.16665 -5.95134,3.45177 0,0.79172 0.28716,1.39509 0.86295,1.84492 0.57577,0.44983 1.26151,0.6844 2.05321,0.6844 1.34949,0 2.44554,-0.52174 3.27323,-1.54734 l 0.35708,1.48783 0.95222,-0.17854 c -0.21593,-0.73772 -0.32734,-1.50579 -0.32732,-2.26151 l 0,-3.27323 c -2e-5,-2.55503 -1.16042,-3.8386 -3.48154,-3.83861 z m 33.71432,0 c -1.27752,10e-6 -2.22135,0.67397 -2.79713,2.02345 0,-0.82767 -0.0996,-1.44906 -0.29756,-1.84491 l -0.8927,0 c 0.17992,0.64776 0.2678,1.65594 0.26781,3.00542 l 0,6.18939 1.07124,0 0,-4.93961 c 0,-0.41384 0.006,-0.72453 0.0595,-0.92246 0.44983,-1.72734 1.38189,-2.58882 2.76737,-2.58883 0.16193,0 0.27333,0.0118 0.32733,0.0298 l 0,-0.8927 c -0.17994,-0.036 -0.34394,-0.0595 -0.50587,-0.0595 z m 6.07037,0 c -1.3315,10e-6 -2.43933,0.45117 -3.303,1.3688 -0.86367,0.91766 -1.30929,2.14865 -1.30929,3.66008 0,1.33149 0.44562,2.40955 1.30929,3.27323 0.86367,0.86367 1.9888,1.30929 3.39227,1.30929 1.22352,0 2.34865,-0.2228 3.39226,-0.65464 l -0.0595,-0.8927 c -1.06161,0.41384 -2.13414,0.62489 -3.21373,0.62489 -1.09758,0 -2.00612,-0.34598 -2.70785,-1.01173 -0.68374,-0.68374 -1.03525,-1.6331 -1.07124,-2.85664 l 7.49868,0 c -0.054,-3.22077 -1.35487,-4.82057 -3.92788,-4.82058 z m 8.89725,0 c -0.95365,10e-6 -1.69196,0.24012 -2.23176,0.74391 -0.5218,0.50383 -0.80343,1.11344 -0.80343,1.81516 0,1.15157 0.83243,1.99576 2.46981,2.49956 1.42145,0.43184 2.14248,1.08228 2.14248,1.96395 0,1.13356 -0.77984,1.69612 -2.29126,1.69612 -0.64777,0 -1.39784,-0.24633 -2.26151,-0.71416 l -0.38684,0.86294 c 0.82768,0.48581 1.68917,0.74392 2.58883,0.74392 1.04361,0 1.83451,-0.26987 2.41029,-0.77367 0.59378,-0.5038 0.8927,-1.13072 0.8927,-1.90443 0,-1.24152 -0.80267,-2.15006 -2.44004,-2.70786 -1.40347,-0.48581 -2.11273,-1.06566 -2.11273,-1.7854 0,-0.44982 0.15222,-0.82486 0.47611,-1.13075 0.32386,-0.30588 0.79302,-0.4761 1.3688,-0.47611 0.80969,1e-5 1.48366,0.22282 2.02346,0.65465 l 0.41659,-0.86294 c -0.55779,-0.41383 -1.30787,-0.62488 -2.2615,-0.62489 z m 7.826,0 c -1.0796,10e-6 -2.11684,0.15223 -3.12445,0.4761 l 0.11903,0.98198 c 1.31349,-0.41384 2.28638,-0.62489 2.91615,-0.6249 0.98963,1e-5 1.69889,0.35152 2.11273,1.07124 0.26989,0.44984 0.41658,0.98335 0.41659,1.57711 l 0,0.14878 -0.17854,0 c -3.97649,0 -5.95133,1.16665 -5.95133,3.45177 0,0.79172 0.28715,1.39509 0.86294,1.84492 0.57578,0.44983 1.26151,0.6844 2.05321,0.6844 1.34948,0 2.44554,-0.52174 3.27323,-1.54734 l 0.35708,1.48783 0.95222,-0.17854 c -0.21593,-0.73772 -0.32734,-1.50579 -0.32733,-2.26151 l 0,-3.27323 c -10e-6,-2.55503 -1.16042,-3.8386 -3.48153,-3.83861 z m 21.06773,0 c -1.38548,10e-6 -2.51683,0.46293 -3.3625,1.39856 -0.84568,0.91766 -1.24978,2.04278 -1.24978,3.39226 0,1.34949 0.4041,2.51613 1.24978,3.45178 0.84567,0.93564 1.97702,1.39855 3.3625,1.39856 1.38547,-10e-6 2.48707,-0.46292 3.33275,-1.39856 0.84567,-0.93565 1.27953,-2.10229 1.27954,-3.45178 -10e-6,-1.34948 -0.43387,-2.4746 -1.27954,-3.39226 -0.84568,-0.93563 -1.94728,-1.39855 -3.33275,-1.39856 z m 9.52214,0 c -0.95364,10e-6 -1.69196,0.24012 -2.23175,0.74391 -0.5218,0.50383 -0.77367,1.11344 -0.77367,1.81516 0,1.15157 0.80267,1.99576 2.44004,2.49956 1.42146,0.43184 2.14248,1.08228 2.14248,1.96395 0,1.13356 -0.75008,1.69612 -2.2615,1.69612 -0.64777,0 -1.39784,-0.24633 -2.26151,-0.71416 l -0.41659,0.86294 c 0.82768,0.48581 1.68917,0.74392 2.58883,0.74392 1.0436,0 1.86426,-0.26987 2.44005,-0.77367 0.59377,-0.5038 0.89269,-1.13072 0.89269,-1.90443 0,-1.24152 -0.83243,-2.15006 -2.4698,-2.70786 -1.40346,-0.48581 -2.11272,-1.06566 -2.11272,-1.7854 0,-0.44982 0.18197,-0.82486 0.50586,-1.13075 0.32387,-0.30588 0.76327,-0.4761 1.33905,-0.47611 0.80969,1e-5 1.48366,0.22282 2.02345,0.65465 l 0.44635,-0.86294 c -0.55779,-0.41383 -1.33762,-0.62488 -2.29126,-0.62489 z m 40.91544,0 c -1.27752,10e-6 -2.22135,0.67397 -2.79713,2.02345 -1e-5,-0.82767 -0.0996,-1.44906 -0.29756,-1.84491 l -0.86295,0 c 0.17991,0.64776 0.26781,1.65594 0.26781,3.00542 l 0,6.18939 1.04148,0 0,-4.93961 c 0,-0.41384 0.0353,-0.72453 0.0893,-0.92246 0.44983,-1.72734 1.35214,-2.58882 2.73762,-2.58883 0.16193,0 0.27333,0.0118 0.32732,0.0298 l 0,-0.8927 c -0.17993,-0.036 -0.34393,-0.0595 -0.50586,-0.0595 z m 5.1479,0 c -1.07958,10e-6 -2.11683,0.15223 -3.12444,0.4761 l 0.11902,0.98198 c 1.31351,-0.41384 2.28639,-0.62489 2.91616,-0.6249 0.98962,1e-5 1.69887,0.35152 2.11272,1.07124 0.26989,0.44984 0.41659,0.98335 0.4166,1.57711 l 0,0.14878 -0.17855,0 c -3.9765,0 -5.95133,1.16665 -5.95133,3.45177 0,0.79172 0.28715,1.39509 0.86294,1.84492 0.57577,0.44983 1.2615,0.6844 2.05321,0.6844 1.34948,0 2.41579,-0.52174 3.24348,-1.54734 l 0.38684,1.48783 0.95221,-0.17854 c -0.21593,-0.73772 -0.32733,-1.50579 -0.32732,-2.26151 l 0,-3.27323 c -10e-6,-2.55503 -1.16042,-3.8386 -3.48154,-3.83861 z m 30.61963,0 c -1.07959,10e-6 -2.11683,0.15223 -3.12445,0.4761 l 0.14878,0.98198 c 1.3135,-0.41384 2.25664,-0.62489 2.8864,-0.6249 0.98962,1e-5 1.69888,0.35152 2.11273,1.07124 0.26989,0.44984 0.41659,0.98335 0.41659,1.57711 l 0,0.14878 -0.17854,0 c -3.97649,0 -5.95134,1.16665 -5.95134,3.45177 0,0.79172 0.28716,1.39509 0.86295,1.84492 0.57577,0.44983 1.26151,0.6844 2.05321,0.6844 1.34948,0 2.44554,-0.52174 3.27323,-1.54734 l 0.35708,1.48783 0.95222,-0.17854 c -0.21593,-0.73772 -0.32733,-1.50579 -0.32732,-2.26151 l 0,-3.27323 c -1e-5,-2.55503 -1.16042,-3.8386 -3.48154,-3.83861 z m 21.06771,0 c -1.38544,10e-6 -2.51682,0.46293 -3.36248,1.39856 -0.84566,0.91766 -1.24978,2.04278 -1.24978,3.39226 0,1.34949 0.40412,2.51613 1.24978,3.45178 0.84566,0.93564 1.97704,1.39855 3.36248,1.39856 1.3855,-10e-6 2.4871,-0.46292 3.33276,-1.39856 0.84571,-0.93565 1.27955,-2.10229 1.27955,-3.45178 0,-1.34948 -0.43384,-2.4746 -1.27955,-3.39226 -0.84566,-0.93563 -1.94726,-1.39855 -3.33276,-1.39856 z m 9.52217,0 c -0.95363,10e-6 -1.69196,0.24012 -2.23174,0.74391 -0.52183,0.50383 -0.77369,1.11344 -0.77369,1.81516 0,1.15157 0.80266,1.99576 2.44007,2.49956 1.42145,0.43184 2.14247,1.08228 2.14247,1.96395 0,1.13356 -0.7501,1.69612 -2.26152,1.69612 -0.64776,0 -1.39786,-0.24633 -2.26152,-0.71416 l -0.4166,0.86294 c 0.82771,0.48581 1.68917,0.74392 2.58884,0.74392 1.04361,0 1.86428,-0.26987 2.44007,-0.77367 0.59375,-0.5038 0.89269,-1.13072 0.89269,-1.90443 0,-1.24152 -0.83244,-2.15006 -2.46979,-2.70786 -1.4035,-0.48581 -2.11275,-1.06566 -2.11275,-1.7854 0,-0.44982 0.18199,-0.82486 0.50587,-1.13075 0.32388,-0.30588 0.76326,-0.4761 1.33906,-0.47611 0.8097,1e-5 1.48363,0.22282 2.02347,0.65465 l 0.44632,-0.86294 c -0.55779,-0.41383 -1.33761,-0.62488 -2.29125,-0.62489 z m -281.23041,0.14878 c -0.8277,10e-6 -1.53072,0.29893 -2.14248,0.8927 -0.61178,0.59378 -0.92246,1.37915 -0.92246,2.35078 0,0.8097 0.31622,1.57154 0.98196,2.29126 -0.1799,0.5398 -0.2678,0.98542 -0.2678,1.3093 0,0.53979 0.27539,0.96742 0.83318,1.30929 0.32388,0.21592 0.92173,0.47402 1.7854,0.74392 1.42146,0.46782 2.14248,1.13003 2.14248,1.9937 0,0.48582 -0.22281,0.88437 -0.65464,1.19026 -0.43184,0.30588 -0.97088,0.44635 -1.63662,0.44635 -0.77371,0 -1.54732,-0.20482 -2.32102,-0.65464 l -0.38684,0.86294 c 0.7917,0.48581 1.66495,0.71415 2.61859,0.71416 1.07959,-1e-5 1.91201,-0.24011 2.46981,-0.74392 0.55778,-0.48581 0.83318,-1.13072 0.83318,-1.90442 0,-1.27751 -0.86149,-2.16254 -2.58883,-2.64835 -1.45744,-0.41384 -2.20199,-0.84147 -2.20199,-1.30929 0,-0.2519 0.0706,-0.50378 0.17854,-0.77368 0.39584,0.19793 0.87053,0.29758 1.42832,0.29757 0.91765,10e-6 1.67949,-0.29893 2.29126,-0.8927 0.62976,-0.59377 0.9522,-1.40267 0.95222,-2.41029 -2e-5,-0.82769 -0.39304,-1.60129 -1.13076,-2.32102 l 1.33905,0.11902 0,-0.86294 -3.60055,0 z m 111.1412,0 c -0.82769,10e-6 -1.56047,0.29893 -2.17223,0.8927 -0.61177,0.59378 -0.92246,1.37915 -0.92246,2.35078 0,0.8097 0.34599,1.57154 1.01173,2.29126 -0.17991,0.5398 -0.26782,0.98542 -0.26782,1.3093 0,0.53979 0.2754,0.96742 0.83319,1.30929 0.32388,0.21592 0.92173,0.47402 1.7854,0.74392 1.42146,0.46782 2.11272,1.13003 2.11273,1.9937 -1e-5,0.48582 -0.19306,0.88437 -0.62489,1.19026 -0.43185,0.30588 -1.00063,0.44635 -1.66637,0.44635 -0.77372,0 -1.54731,-0.20482 -2.32103,-0.65464 l -0.35708,0.86294 c 0.7917,0.48581 1.66496,0.71415 2.61859,0.71416 1.07959,-1e-5 1.88225,-0.24011 2.44005,-0.74392 0.55778,-0.48581 0.83318,-1.13072 0.83319,-1.90442 -1e-5,-1.27751 -0.86149,-2.16254 -2.58884,-2.64835 -1.45744,-0.41384 -2.17223,-0.84147 -2.17223,-1.30929 0,-0.2519 0.0408,-0.50378 0.14878,-0.77368 0.39584,0.19793 0.87053,0.29758 1.42832,0.29757 0.91765,10e-6 1.6795,-0.29893 2.29126,-0.8927 0.62976,-0.59377 0.95221,-1.40267 0.95222,-2.41029 -10e-6,-0.82769 -0.36329,-1.60129 -1.101,-2.32102 l 1.30929,0.11902 0,-0.86294 -3.5708,0 z m -213.14711,0.0298 0,9.19482 1.04148,0 0,-9.19482 -1.04148,0 z m 95.51895,0 0,9.19482 1.04148,0 0,-9.19482 -1.04148,0 z m 12.22999,0 0,5.17766 c 0,2.84293 1.10782,4.25521 3.303,4.25521 1.51142,0 2.66007,-0.62138 3.45177,-1.84491 0.072,0.57578 0.20067,1.17363 0.4166,1.7854 l 1.01172,-0.2083 c -0.30589,-0.8097 -0.47611,-1.566 -0.47611,-2.23175 l 0,-6.93331 -1.04148,0 0,5.5645 c 0,0.88167 -0.32799,1.62621 -1.01172,2.20199 -0.62977,0.50381 -1.33903,0.74392 -2.11273,0.74392 -1.65537,0 -2.49956,-1.18393 -2.49956,-3.54104 l 0,-4.96937 -1.04149,0 z m 10.53387,0 0,9.19482 1.07124,0 0,-9.19482 -1.07124,0 z m 20.08576,0 0,9.19482 1.07124,0 0,-9.19482 -1.07124,0 z m 146.96826,0 3.80885,8.56993 c 0.054,0.16193 0.0893,0.27333 0.0893,0.32732 -0.79171,2.10519 -1.95211,3.3182 -3.48153,3.66007 l 0.23805,0.83319 c 1.76333,-0.41384 3.16386,-1.8026 4.22545,-4.19569 l 4.04691,-9.19482 -1.16051,0 -3.21372,7.79625 -3.42202,-7.79625 -1.13075,0 z m 53.77032,0 0,5.17766 c 0,2.84293 1.10783,4.25521 3.30299,4.25521 1.51142,0 2.66007,-0.62138 3.45178,-1.84491 0.072,0.57578 0.20066,1.17363 0.41659,1.7854 l 1.01173,-0.2083 c -0.30589,-0.8097 -0.44636,-1.566 -0.44635,-2.23175 l 0,-6.93331 -1.07124,0 0,5.5645 c -1e-5,0.88167 -0.328,1.62621 -1.01173,2.20199 -0.62977,0.50381 -1.33902,0.74392 -2.11272,0.74392 -1.65538,0 -2.46981,-1.18393 -2.46981,-3.54104 l 0,-4.96937 -1.07124,0 z m -317.44429,0.65465 c 1.09758,1e-5 1.90025,0.39858 2.44005,1.19026 0.39585,0.5758 0.60689,1.22624 0.62489,1.96395 l -6.4572,0 c 0.12595,-0.80969 0.4484,-1.50719 0.95222,-2.08297 0.62975,-0.71972 1.45042,-1.07123 2.44004,-1.07124 z m 41.30228,0 c 0.86366,1e-5 1.63173,0.29893 2.26151,0.8927 0.70172,0.62976 1.04147,1.45043 1.04148,2.44004 l 0,1.5176 c -10e-6,0.86367 -0.3107,1.59645 -0.92246,2.17223 -0.61178,0.57578 -1.36185,0.86295 -2.2615,0.86295 -2.26715,0 -3.39227,-1.33617 -3.39227,-4.01715 0,-1.13356 0.28716,-2.0774 0.86294,-2.79713 0.57578,-0.71972 1.36668,-1.07123 2.4103,-1.07124 z m 10.9207,0 c 1.09757,1e-5 1.93001,0.39858 2.46981,1.19026 0.39584,0.5758 0.60689,1.22624 0.62489,1.96395 l -6.45721,0 c 0.12596,-0.80969 0.44841,-1.50719 0.95222,-2.08297 0.62976,-0.71972 1.42065,-1.07123 2.41029,-1.07124 z m 72.1302,0 c 1.09758,1e-5 1.90025,0.39858 2.44005,1.19026 0.39584,0.5758 0.60689,1.22624 0.62489,1.96395 l -6.4572,0 c 0.12595,-0.80969 0.4484,-1.50719 0.95221,-2.08297 0.62977,-0.71972 1.45042,-1.07123 2.44005,-1.07124 z m 82.48552,0 c 1.09758,1e-5 1.93,0.39858 2.46981,1.19026 0.39583,0.5758 0.57713,1.22624 0.59513,1.96395 l -6.42744,0 c 0.12595,-0.80969 0.41865,-1.50719 0.92246,-2.08297 0.62975,-0.71972 1.45042,-1.07123 2.44004,-1.07124 z m 26.84053,0 c 0.86367,1e-5 1.60199,0.29893 2.23175,0.8927 0.70173,0.62976 1.04149,1.45043 1.04149,2.44004 l 0,1.5176 c 0,0.86367 -0.3107,1.59645 -0.92246,2.17223 -0.61178,0.57578 -1.36186,0.86295 -2.26151,0.86295 -2.26714,0 -3.39226,-1.33617 -3.39226,-4.01715 0,-1.13356 0.28716,-2.0774 0.86294,-2.79713 0.57578,-0.71972 1.39644,-1.07123 2.44005,-1.07124 z m 76.62346,0 c 0.86367,1e-5 1.63174,0.29893 2.2615,0.8927 0.70174,0.62976 1.04148,1.45043 1.04149,2.44004 l 0,1.5176 c -10e-6,0.86367 -0.3107,1.59645 -0.92246,2.17223 -0.61178,0.57578 -1.36186,0.86295 -2.26151,0.86295 -2.26714,0 -3.39226,-1.33617 -3.39226,-4.01715 0,-1.13356 0.28716,-2.0774 0.86295,-2.79713 0.57578,-0.71972 1.36668,-1.07123 2.41029,-1.07124 z m 30.64938,0 c 0.86366,1e-5 1.60199,0.29893 2.23174,0.8927 0.70172,0.62976 1.04146,1.45043 1.04151,2.44004 l 0,1.5176 c -5e-5,0.86367 -0.31071,1.59645 -0.92246,2.17223 -0.6118,0.57578 -1.36184,0.86295 -2.26152,0.86295 -2.26716,0 -3.39226,-1.33617 -3.39226,-4.01715 0,-1.13356 0.28717,-2.0774 0.86292,-2.79713 0.57579,-0.71972 1.39646,-1.07123 2.44007,-1.07124 z m -189.37153,0.0595 c 1.0436,0 1.89332,0.37505 2.55908,1.13075 0.68372,0.73773 1.01172,1.6518 1.01173,2.76738 -10e-6,1.11557 -0.32801,2.07117 -1.01173,2.82688 -0.66576,0.75572 -1.51548,1.13076 -2.55908,1.13076 -1.04362,0 -1.90509,-0.37504 -2.58883,-1.13076 -0.66575,-0.75571 -1.01173,-1.71131 -1.01173,-2.82688 0,-1.11558 0.34598,-2.02965 1.01173,-2.76738 0.68374,-0.7557 1.54521,-1.13075 2.58883,-1.13075 z m 93.19793,0 c 1.0436,0 1.89333,0.37505 2.55908,1.13075 0.68373,0.73773 1.01171,1.6518 1.01173,2.76738 -2e-5,1.11557 -0.328,2.07117 -1.01173,2.82688 -0.66575,0.75572 -1.51548,1.13076 -2.55908,1.13076 -1.04361,0 -1.90509,-0.37504 -2.58883,-1.13076 -0.66575,-0.75571 -1.01173,-1.71131 -1.01173,-2.82688 0,-1.11558 0.34598,-2.02965 1.01173,-2.76738 0.68374,-0.7557 1.54522,-1.13075 2.58883,-1.13075 z m 107.27282,0 c 1.04361,0 1.89335,0.37505 2.55912,1.13075 0.68372,0.73773 1.01168,1.6518 1.01168,2.76738 0,1.11557 -0.32796,2.07117 -1.01168,2.82688 -0.66577,0.75572 -1.51551,1.13076 -2.55912,1.13076 -1.04361,0 -1.90507,-0.37504 -2.58879,-1.13076 -0.66576,-0.75571 -1.01173,-1.71131 -1.01173,-2.82688 0,-1.11558 0.34597,-2.02965 1.01173,-2.76738 0.68372,-0.7557 1.54518,-1.13075 2.58879,-1.13075 z m -271.55946,0.0893 c 0.73772,1e-5 1.3238,0.26364 1.75564,0.80343 0.37786,0.44984 0.56538,0.95358 0.56538,1.54735 0,0.73773 -0.23459,1.31205 -0.6844,1.72589 -0.44984,0.41385 -0.98887,0.62489 -1.63662,0.62489 -0.57579,0 -1.09752,-0.19929 -1.54735,-0.59514 -0.48582,-0.43183 -0.71416,-1.00615 -0.71416,-1.72588 0,-0.64775 0.19928,-1.19854 0.59513,-1.66638 0.39585,-0.48581 0.94665,-0.71415 1.66638,-0.71416 z m 111.11145,0 c 0.73772,1e-5 1.3238,0.26364 1.75565,0.80343 0.37785,0.44984 0.56537,0.95358 0.56537,1.54735 0,0.73773 -0.23457,1.31205 -0.6844,1.72589 -0.44984,0.41385 -0.98886,0.62489 -1.63662,0.62489 -0.57578,0 -1.09752,-0.19929 -1.54735,-0.59514 -0.48581,-0.43183 -0.71416,-1.00615 -0.71416,-1.72588 0,-0.64775 0.19929,-1.19854 0.59514,-1.66638 0.39584,-0.48581 0.94664,-0.71415 1.66637,-0.71416 z m -163.66175,3.5708 0,1.84492 c 0,0.14395 -0.0588,0.30793 -0.14878,0.50586 -0.57579,1.20554 -1.55422,1.81516 -2.97567,1.81516 -0.5398,0 -1.00895,-0.14046 -1.36881,-0.44635 -0.35986,-0.32388 -0.53562,-0.80478 -0.53562,-1.39857 0,-1.5474 1.68215,-2.321 5.02888,-2.32102 z m 141.70132,0 0,1.84492 c 0,0.14395 -0.0588,0.30793 -0.14878,0.50586 -0.57579,1.20554 -1.55422,1.81516 -2.97567,1.81516 -0.5398,0 -1.00895,-0.14046 -1.36881,-0.44635 -0.35986,-0.32388 -0.53562,-0.80478 -0.53562,-1.39857 0,-1.5474 1.68216,-2.321 5.02888,-2.32102 z m 56.50794,0 0,1.84492 c -10e-6,0.14395 -0.0588,0.30793 -0.14879,0.50586 -0.57579,1.20554 -1.55421,1.81516 -2.97566,1.81516 -0.53981,0 -1.00895,-0.14046 -1.36881,-0.44635 -0.35987,-0.32388 -0.53562,-0.80478 -0.53562,-1.39857 0,-1.5474 1.68214,-2.321 5.02888,-2.32102 z m 76.65322,0 0,1.84492 c -10e-6,0.14395 -0.0588,0.30793 -0.14879,0.50586 -0.57579,1.20554 -1.58397,1.81516 -3.00543,1.81516 -0.5398,0 -0.97918,-0.14046 -1.33904,-0.44635 -0.35988,-0.32388 -0.53563,-0.80478 -0.53563,-1.39857 0,-1.5474 1.68215,-2.321 5.02889,-2.32102 z m 30.61962,0 0,1.84492 c 0,0.14395 -0.0588,0.30793 -0.14878,0.50586 -0.57579,1.20554 -1.55422,1.81516 -2.97567,1.81516 -0.53979,0 -1.00895,-0.14046 -1.36881,-0.44635 -0.35986,-0.32388 -0.53562,-0.80478 -0.53562,-1.39857 0,-1.5474 1.68215,-2.321 5.02888,-2.32102 z"
       id="path3969"
       inkscape:connector-curvature="0" />
  </g>
</svg>
